<?xml version="1.0" standalone="no"?>
<!DOCTYPE svg PUBLIC "-//W3C//DTD SVG 20010904//EN"
 "http://www.w3.org/TR/2001/REC-SVG-20010904/DTD/svg10.dtd">
<svg version="1.0" xmlns="http://www.w3.org/2000/svg"
 width="940.000000pt" height="940.000000pt" viewBox="0 0 940.000000 940.000000"
 preserveAspectRatio="xMidYMid meet">
<metadata>
Created by potrace 1.11, written by Peter Selinger 2001-2013
</metadata>
<g transform="translate(0.000000,940.000000) scale(0.100000,-0.100000)"
fill="#000000" stroke="none">
<path d="M7645 7223 c-697 -45 -1494 -226 -2260 -513 -1335 -501 -2759 -1370
-4185 -2554 -213 -177 -240 -203 -240 -238 0 -47 13 -62 127 -139 60 -40 137
-100 173 -134 36 -34 100 -85 142 -114 42 -29 112 -83 154 -120 121 -107 438
-301 756 -464 484 -247 897 -394 1313 -468 174 -31 478 -37 651 -14 438 59
941 261 1399 562 175 115 245 173 288 235 20 29 72 132 115 228 610 1354 1388
2366 2281 2968 80 54 174 115 208 136 34 20 73 51 85 67 13 17 33 41 45 55 17
18 18 24 7 24 -8 0 -28 10 -45 23 -27 20 -45 23 -172 27 -163 6 -169 10 -113
76 42 50 48 74 21 98 -19 17 -35 18 -288 12 -240 -6 -268 -5 -273 9 -9 22 38
69 106 107 62 35 110 76 110 94 0 7 -7 20 -16 28 -13 13 -42 16 -177 14 -89
-1 -184 -3 -212 -5z"/>
</g>
</svg>
