<?xml version="1.0" standalone="no"?>
<!DOCTYPE svg PUBLIC "-//W3C//DTD SVG 20010904//EN"
 "http://www.w3.org/TR/2001/REC-SVG-20010904/DTD/svg10.dtd">
<svg version="1.0" xmlns="http://www.w3.org/2000/svg"
 width="793.000000pt" height="793.000000pt" viewBox="0 0 793.000000 793.000000"
 preserveAspectRatio="xMidYMid meet">
<metadata>
Created by potrace 1.11, written by Peter Selinger 2001-2013
</metadata>
<g transform="translate(0.000000,793.000000) scale(0.100000,-0.100000)"
fill="#000000" stroke="none">
<path d="M6907 6389 c7 -7 15 -10 18 -7 3 3 -2 9 -12 12 -14 6 -15 5 -6 -5z"/>
<path d="M6977 6393 c-3 -5 -1 -17 4 -28 6 -17 7 -16 6 8 -1 28 -3 32 -10 20z"/>
<path d="M7015 6391 c-3 -5 -2 -12 3 -15 5 -3 9 1 9 9 0 17 -3 19 -12 6z"/>
<path d="M7130 6389 c0 -5 5 -7 10 -4 6 3 10 8 10 11 0 2 -4 4 -10 4 -5 0 -10
-5 -10 -11z"/>
<path d="M7073 6375 c0 -8 4 -12 9 -9 5 3 6 10 3 15 -9 13 -12 11 -12 -6z"/>
<path d="M6507 6369 c7 -7 15 -10 18 -7 3 3 -2 9 -12 12 -14 6 -15 5 -6 -5z"/>
<path d="M6774 6372 c4 -3 14 -7 22 -8 9 -1 13 0 10 4 -4 3 -14 7 -22 8 -9 1
-13 0 -10 -4z"/>
<path d="M6850 6370 c-9 -6 -10 -10 -3 -10 6 0 15 5 18 10 8 12 4 12 -15 0z"/>
<path d="M6713 6355 c0 -8 4 -15 9 -15 4 0 8 4 8 9 0 6 -4 12 -8 15 -5 3 -9
-1 -9 -9z"/>
<path d="M6870 6350 c-6 -11 -15 -20 -21 -20 -6 0 -8 4 -5 9 3 5 -1 11 -9 15
-8 3 -17 0 -21 -6 -4 -7 -3 -8 4 -4 7 4 12 3 12 -3 0 -13 -73 -9 -82 4 -5 6
-8 3 -8 -7 0 -19 -27 -18 -42 3 -8 12 -9 12 -5 -1 4 -12 -4 -16 -34 -17 -22
-1 -37 2 -34 7 3 5 1 12 -5 15 -6 4 -10 3 -9 -2 4 -23 -5 -28 -49 -28 -26 0
-55 -3 -64 -8 -12 -5 -18 -3 -18 5 0 10 -2 10 -8 1 -4 -6 -36 -14 -72 -17 -36
-3 -80 -8 -98 -12 -20 -3 -39 0 -48 7 -8 6 -14 8 -14 3 0 -5 -5 -2 -11 6 -9
13 -10 13 -6 0 2 -8 10 -14 16 -12 6 1 11 -2 11 -7 0 -5 -16 -8 -35 -7 -19 2
-32 0 -30 -4 2 -4 -8 -8 -23 -8 -27 -2 -52 -6 -107 -16 -20 -4 -25 -3 -16 3
10 6 5 8 -17 8 -17 -1 -28 -6 -25 -13 2 -6 -2 -11 -9 -12 -40 -4 -104 -15
-107 -18 -2 -2 -16 3 -32 12 -25 13 -28 13 -23 -1 3 -8 10 -13 14 -10 5 3 11
1 14 -3 3 -5 -4 -9 -15 -8 -11 0 -23 7 -28 14 -7 11 -9 10 -14 -3 -4 -9 -3
-13 3 -10 6 3 10 2 10 -4 0 -5 -16 -8 -35 -7 -19 2 -32 0 -29 -5 2 -4 -4 -8
-13 -8 -37 -1 -72 -7 -79 -14 -14 -14 -36 -7 -30 9 3 8 2 12 -4 9 -6 -3 -10
-13 -10 -22 0 -10 -6 -14 -20 -10 -10 3 -20 1 -22 -4 -3 -7 -53 -19 -100 -22
-10 -1 -18 -5 -18 -10 0 -5 -6 -7 -14 -4 -7 3 -18 1 -24 -5 -8 -8 -16 -7 -28
3 -16 12 -17 12 -11 -5 6 -14 4 -17 -8 -12 -9 3 -28 -2 -42 -11 -20 -14 -27
-15 -31 -5 -3 10 -7 9 -16 -4 -10 -13 -17 -14 -34 -5 -15 8 -23 8 -28 -1 -4
-7 -3 -8 4 -4 7 4 12 3 12 -2 0 -12 -67 -25 -82 -16 -6 4 -8 3 -4 -4 3 -6 2
-13 -4 -17 -5 -3 -10 -1 -10 4 0 6 -5 11 -11 11 -5 0 -7 -6 -3 -12 5 -8 0 -7
-11 2 -10 8 -16 10 -12 4 8 -13 -19 -27 -34 -18 -5 3 -9 1 -9 -4 0 -5 -21 -15
-47 -22 -27 -7 -52 -16 -58 -19 -5 -3 -14 -6 -20 -8 -5 -1 -31 -9 -57 -17 -27
-8 -48 -12 -48 -8 0 4 -4 2 -8 -5 -4 -7 -26 -13 -49 -14 -30 -2 -39 -7 -36
-16 3 -8 2 -13 -3 -12 -5 1 -12 0 -16 -1 -5 -1 -11 -3 -15 -4 -5 -1 -18 -7
-31 -15 -19 -10 -26 -10 -40 1 -9 7 -13 8 -9 2 4 -8 -14 -20 -51 -34 -31 -12
-67 -26 -80 -31 -18 -7 -22 -6 -17 3 4 7 1 6 -7 -3 -14 -17 -155 -75 -175 -73
-7 1 -13 -3 -13 -8 0 -6 -11 -8 -25 -6 -14 3 -28 1 -32 -5 -3 -6 -1 -7 5 -3 7
4 12 2 12 -3 0 -11 -19 -16 -53 -13 -10 1 -16 -2 -13 -7 3 -5 -9 -14 -27 -21
-17 -7 -48 -20 -67 -28 -19 -9 -37 -17 -40 -17 -3 0 -15 -6 -27 -13 -13 -7
-23 -9 -23 -5 0 4 -4 3 -8 -3 -4 -6 -22 -19 -39 -28 -31 -16 -33 -16 -34 1 0
14 -2 13 -9 -4 -5 -13 -14 -23 -19 -23 -5 0 -7 10 -5 23 3 16 1 15 -7 -5 -10
-25 -20 -33 -41 -29 -5 0 -8 -4 -8 -10 0 -5 -5 -7 -10 -4 -5 3 -10 1 -10 -5 0
-6 -5 -8 -10 -5 -5 3 -10 2 -10 -3 0 -13 -78 -44 -91 -37 -5 4 -9 -1 -9 -11 0
-15 -2 -15 -27 2 -25 16 -26 16 -14 1 16 -20 19 -18 -41 -45 -25 -12 -49 -26
-53 -32 -5 -8 -11 -8 -20 0 -10 8 -15 8 -21 -1 -4 -8 -3 -9 4 -5 7 4 12 5 12
2 0 -3 -10 -10 -21 -17 -15 -8 -19 -8 -15 0 4 6 2 11 -3 11 -6 0 -11 -6 -11
-14 0 -19 -21 -25 -45 -13 -17 9 -18 8 -7 -5 10 -13 10 -17 -3 -22 -11 -4 -14
-2 -10 7 4 6 0 4 -8 -5 -12 -16 -15 -16 -29 -2 -12 12 -17 13 -23 3 -5 -7 -4
-10 2 -6 6 4 14 0 17 -9 5 -13 2 -15 -14 -11 -11 3 -18 1 -14 -4 3 -5 -12 -17
-33 -26 -21 -10 -50 -26 -65 -36 -16 -10 -32 -15 -38 -12 -5 3 -10 1 -10 -5 0
-6 -4 -9 -9 -6 -5 3 -12 -1 -15 -10 -3 -8 -10 -13 -15 -10 -5 3 -11 0 -14 -8
-3 -7 -15 -16 -26 -19 -12 -3 -19 -1 -16 3 3 5 0 12 -6 16 -8 4 -9 3 -5 -4 4
-7 -5 -23 -21 -38 -25 -23 -28 -24 -34 -7 -6 13 -8 14 -9 3 -1 -20 -47 -53
-55 -40 -3 5 -12 10 -18 10 -7 0 -6 -4 3 -10 8 -5 12 -10 10 -12 -28 -18 -51
-26 -66 -24 -11 2 -13 1 -6 -1 7 -3 10 -9 6 -14 -3 -5 -10 -7 -15 -4 -5 4 -9
1 -9 -4 0 -6 -7 -11 -15 -11 -8 0 -15 -4 -15 -9 0 -5 -10 -13 -22 -17 -13 -3
-30 -12 -38 -19 -17 -14 -47 -14 -70 0 -13 8 -13 6 -1 -8 7 -9 17 -14 22 -11
5 3 9 3 9 1 0 -5 -50 -37 -97 -63 -13 -7 -23 -10 -23 -6 0 4 -5 0 -10 -8 -6
-10 -10 -11 -10 -2 0 6 -5 12 -11 12 -5 0 -7 -5 -4 -10 9 -15 -14 -40 -31 -33
-7 3 -11 10 -7 17 3 6 2 7 -3 3 -5 -5 -9 -15 -9 -24 0 -8 -18 -25 -40 -37 -22
-11 -43 -25 -47 -31 -5 -6 -8 -5 -8 4 0 8 -8 4 -19 -10 -16 -20 -21 -21 -35
-10 -9 7 -13 18 -9 24 4 6 1 7 -6 3 -9 -6 -8 -12 4 -26 14 -16 14 -19 -11 -35
-15 -9 -24 -13 -20 -7 3 5 0 12 -8 15 -9 4 -12 0 -9 -13 3 -10 -1 -21 -8 -25
-8 -6 -10 -4 -5 6 4 8 1 6 -7 -3 -8 -10 -17 -15 -20 -11 -4 3 -7 -1 -7 -10 0
-19 -20 -23 -21 -4 0 6 -5 3 -10 -8 -6 -11 -31 -32 -55 -47 -25 -16 -42 -22
-39 -15 4 6 -2 3 -12 -9 -23 -27 -113 -88 -113 -77 0 4 -5 0 -11 -9 -5 -10
-16 -18 -23 -18 -7 0 -21 -9 -31 -20 -10 -11 -23 -20 -29 -20 -6 0 -23 -11
-38 -25 -29 -27 -44 -33 -32 -13 5 7 -8 -3 -27 -22 -19 -19 -48 -42 -65 -50
-16 -8 -31 -17 -34 -20 -56 -56 -130 -86 -122 -49 2 8 0 10 -4 6 -11 -11 -14
-38 -3 -31 16 10 10 -13 -8 -27 -14 -12 -16 -12 -9 1 4 9 1 8 -7 -2 -16 -20
-32 -25 -21 -6 4 7 3 8 -4 4 -6 -4 -8 -14 -5 -23 4 -11 3 -14 -5 -9 -7 4 -15
1 -18 -8 -7 -18 -34 -22 -34 -5 0 5 5 7 12 3 7 -5 8 -3 4 5 -10 16 -21 5 -21
-22 0 -13 -6 -22 -15 -22 -8 0 -25 -11 -37 -25 -12 -14 -23 -20 -23 -14 0 6
-7 11 -15 11 -10 0 -12 -4 -5 -12 10 -12 4 -25 -12 -25 -5 0 -6 5 -2 12 4 7 3
8 -5 4 -6 -4 -9 -12 -5 -17 3 -6 -3 -13 -15 -16 -11 -3 -18 -9 -16 -14 3 -4
-3 -6 -15 -4 -11 2 -23 -1 -26 -7 -4 -7 -2 -8 4 -4 7 4 12 3 12 -3 0 -19 -19
-21 -30 -4 -10 16 -10 16 -5 -4 3 -12 1 -25 -6 -29 -8 -5 -10 -2 -5 7 4 8 -2
2 -14 -13 -20 -25 -59 -41 -45 -19 3 5 0 13 -6 17 -8 5 -9 3 -4 -6 6 -9 4 -12
-7 -8 -8 4 -15 1 -15 -7 0 -7 6 -11 14 -8 27 10 12 -13 -23 -35 -30 -20 -38
-21 -52 -10 -15 12 -16 11 -3 -5 9 -12 10 -17 2 -17 -7 0 -10 -4 -6 -9 3 -5
-4 -12 -15 -16 -11 -3 -20 -11 -20 -16 0 -6 -4 -8 -9 -5 -5 3 -12 -1 -15 -10
-5 -12 -10 -13 -19 -5 -14 11 -37 -3 -37 -23 0 -5 7 -1 15 10 8 10 15 14 15 7
0 -7 -16 -24 -35 -39 -33 -25 -37 -26 -54 -10 -14 13 -18 14 -18 2 0 -8 5 -14
10 -13 5 1 12 -5 15 -13 2 -8 1 -12 -3 -8 -4 4 -14 0 -22 -8 -12 -12 -18 -12
-32 -2 -13 10 -14 10 -4 -2 16 -17 17 -30 2 -30 -6 0 -17 -7 -26 -16 -9 -8
-22 -13 -29 -10 -9 3 -11 0 -7 -11 4 -11 2 -14 -5 -9 -7 4 -12 1 -13 -6 0 -20
-57 -61 -75 -54 -12 5 -15 2 -10 -9 8 -21 -23 -32 -36 -14 -7 10 -8 8 -5 -9 4
-18 0 -26 -19 -34 -13 -6 -24 -15 -24 -20 0 -5 -4 -7 -9 -3 -5 3 -13 -4 -16
-16 -5 -16 -13 -20 -32 -16 -16 3 -21 1 -15 -5 12 -12 -55 -74 -75 -70 -7 2
-13 -1 -12 -5 3 -20 -2 -27 -11 -13 -8 13 -10 12 -10 -2 0 -23 -17 -23 -22 0
-3 14 -5 13 -10 -6 -3 -12 -2 -20 3 -16 15 9 10 -13 -6 -26 -8 -6 -19 -9 -25
-5 -6 4 -9 1 -8 -6 2 -6 -3 -14 -11 -17 -9 -3 -11 0 -6 8 5 8 4 11 -3 6 -6 -4
-9 -12 -6 -20 3 -7 -13 -25 -36 -41 -22 -15 -40 -32 -40 -38 0 -5 -7 -4 -15 3
-8 6 -20 10 -27 7 -8 -4 -7 -6 5 -6 23 -1 22 -14 -3 -36 -11 -10 -20 -15 -20
-11 0 4 -6 1 -14 -6 -8 -7 -11 -17 -8 -22 3 -5 -1 -7 -10 -4 -9 4 -21 -4 -31
-22 -17 -27 -30 -32 -53 -18 -6 4 -11 1 -11 -7 0 -8 4 -12 9 -9 14 9 9 -7 -8
-24 -11 -11 -13 -17 -5 -20 6 -2 8 -9 5 -14 -4 -6 -2 -8 4 -4 6 3 16 1 24 -6
7 -7 30 -24 50 -38 21 -14 38 -33 38 -42 0 -9 4 -19 9 -22 5 -4 6 4 3 16 -5
22 -5 22 12 5 10 -9 22 -17 28 -17 6 0 8 -10 5 -22 -6 -21 -5 -22 8 -5 12 17
14 17 23 2 5 -9 11 -15 13 -14 2 2 14 -4 27 -13 17 -11 20 -17 10 -22 -8 -3
-5 -5 7 -5 37 2 46 -1 39 -12 -4 -8 -9 -7 -16 2 -7 11 -8 9 -4 -5 5 -14 3 -17
-11 -12 -14 5 -15 4 -7 -4 9 -9 17 -8 34 2 18 10 24 10 27 0 3 -6 10 -9 15 -6
6 4 8 3 5 -3 -4 -6 5 -15 19 -22 14 -6 22 -16 19 -22 -4 -6 -1 -10 6 -8 32 4
40 0 27 -15 -11 -11 -18 -8 -47 21 -20 20 -40 32 -49 28 -10 -4 -12 0 -8 12 6
14 4 15 -5 6 -9 -9 -7 -17 6 -35 12 -16 16 -18 11 -5 -4 13 -2 17 6 14 7 -2
12 -10 10 -16 -1 -7 2 -10 8 -6 13 8 13 -1 0 -25 -7 -13 -7 -21 2 -26 6 -4 8
-3 5 2 -3 6 -1 16 4 24 8 12 14 10 33 -14 18 -22 24 -25 23 -11 -3 26 28 27
55 2 13 -12 26 -23 28 -24 3 -1 13 -5 22 -8 10 -4 18 -14 18 -22 0 -8 4 -12 9
-8 13 8 63 -44 55 -57 -4 -6 1 -8 12 -5 11 4 30 -1 44 -9 20 -12 21 -14 4 -9
-16 4 -20 1 -19 -12 3 -30 17 -53 26 -47 5 3 9 1 9 -5 0 -5 -6 -11 -12 -14 -7
-3 1 -5 17 -5 48 1 57 -1 50 -11 -3 -5 -1 -12 5 -16 6 -4 7 -11 4 -17 -4 -6 1
-6 14 1 15 8 23 7 32 -4 6 -8 8 -20 4 -26 -4 -7 -3 -9 4 -5 5 3 13 0 16 -6 3
-7 3 -2 -1 12 -5 22 -4 23 10 12 9 -8 13 -21 11 -30 -4 -14 -3 -13 6 1 9 14
19 17 37 12 18 -4 23 -3 17 7 -4 8 -3 10 2 5 5 -5 10 -13 10 -18 3 -22 5 -23
14 -9 7 12 10 11 16 -5 8 -20 23 -35 37 -35 5 0 5 6 1 12 -7 12 19 -7 54 -40
7 -7 17 -10 21 -7 5 2 16 -4 26 -15 10 -11 22 -17 28 -13 6 4 7 1 2 -7 -6 -10
-4 -12 8 -7 9 3 18 -1 21 -10 4 -9 9 -13 13 -10 3 4 20 -4 37 -16 17 -12 33
-22 36 -22 3 0 23 -11 45 -24 22 -14 44 -24 48 -23 4 1 0 -9 -9 -23 -9 -14
-14 -28 -10 -32 3 -3 6 -1 6 5 0 6 10 9 22 7 12 -3 27 0 34 6 18 15 35 2 27
-19 -6 -15 -5 -16 12 -2 11 9 16 10 11 3 -4 -7 -3 -20 2 -29 8 -15 10 -15 15
0 5 11 3 15 -5 10 -7 -4 -8 -3 -4 4 5 8 17 6 41 -6 31 -15 47 -34 27 -31 -4 1
-14 1 -22 0 -13 -1 -13 -3 -1 -10 9 -6 21 -5 33 2 12 8 21 9 26 2 4 -5 14 -11
22 -13 8 -2 16 -7 18 -12 2 -5 10 -6 19 -3 9 4 14 2 10 -3 -3 -6 -2 -16 4 -24
7 -12 9 -11 9 4 0 20 0 20 16 0 8 -10 13 -12 9 -4 -5 12 -4 12 7 -1 7 -9 18
-14 25 -12 8 3 11 -5 8 -24 -2 -15 -2 -22 1 -16 4 9 11 10 24 3 13 -7 21 -7
26 2 5 7 3 8 -6 3 -8 -5 -11 -4 -7 3 8 11 57 -7 57 -21 0 -5 4 -5 10 -2 5 3
21 -2 36 -12 15 -9 35 -18 46 -18 11 -1 24 -8 29 -16 5 -8 9 -11 9 -7 0 12
164 -52 173 -68 4 -8 13 -14 20 -14 7 0 6 4 -3 10 -13 8 -12 10 3 10 9 0 17
-5 17 -11 0 -5 4 -8 9 -5 5 3 12 -1 15 -10 5 -13 9 -14 21 -4 8 7 15 8 15 3 0
-5 7 -10 15 -11 8 -1 22 -3 30 -4 8 -1 12 -5 9 -9 -2 -5 6 -8 18 -7 40 2 48
-2 48 -18 0 -9 -5 -12 -12 -8 -7 5 -8 3 -3 -6 7 -11 10 -10 19 1 17 22 72 9
68 -16 -2 -18 -2 -19 8 -2 12 19 40 23 40 6 0 -5 -4 -8 -9 -4 -5 3 -13 0 -17
-6 -4 -8 -3 -9 4 -5 8 4 12 0 13 -11 0 -14 2 -13 10 5 6 15 13 21 21 15 7 -4
21 -6 31 -5 10 2 21 -6 26 -20 7 -17 10 -19 10 -5 1 16 31 26 31 10 0 -5 17
-9 38 -11 20 -1 46 -4 57 -7 11 -2 26 -4 33 -4 6 -1 12 -8 12 -16 0 -8 4 -15
10 -15 5 0 6 8 3 17 -7 17 -6 17 20 0 14 -9 30 -17 34 -17 4 0 1 5 -7 10 -13
8 -12 10 3 10 9 0 17 -6 17 -12 0 -10 2 -10 9 0 6 11 9 9 13 -5 3 -11 12 -20
21 -20 9 0 14 4 11 9 -3 5 -10 6 -15 3 -5 -4 -9 -2 -9 4 0 7 21 8 58 4 31 -3
73 -6 92 -7 19 0 41 -5 48 -9 6 -5 12 -4 12 1 0 10 56 9 66 -1 10 -10 26 -9
20 1 -3 5 8 8 25 8 16 0 30 -3 30 -8 1 -4 2 -12 3 -17 0 -5 4 -13 8 -17 4 -3
6 3 3 14 -5 28 11 38 32 20 12 -9 15 -9 9 -1 -5 9 1 13 21 14 15 0 37 2 48 4
11 2 48 7 83 10 34 3 72 9 85 14 12 4 30 7 40 6 9 -2 17 0 17 5 0 5 12 7 28 5
15 -2 32 1 38 6 6 4 25 9 42 11 18 1 32 7 32 12 0 5 3 7 6 3 3 -3 24 1 46 9
80 28 139 43 133 34 -3 -6 1 -7 10 -4 9 4 13 9 10 12 -5 6 49 32 67 32 5 0 6
-6 3 -12 -3 -7 0 -6 6 4 11 14 15 15 38 1 23 -13 24 -13 8 0 -17 14 -17 16 4
31 17 11 25 12 30 4 4 -6 14 -8 22 -5 15 6 33 -18 28 -38 -2 -5 1 -6 5 -2 11
10 14 38 4 32 -4 -3 -10 2 -14 10 -3 9 -12 12 -23 8 -10 -3 -14 -2 -10 3 12
13 95 43 102 36 9 -9 54 -8 48 1 -3 5 -14 7 -24 4 -11 -3 -19 -1 -19 4 0 8 15
13 33 10 4 0 7 3 7 8 0 5 10 12 23 16 12 4 24 8 27 9 3 1 15 7 28 14 12 7 22
9 22 5 0 -4 5 0 11 9 9 17 12 17 42 3 24 -12 28 -12 15 -2 -22 18 -23 31 -2
23 8 -3 13 -2 10 3 -7 11 16 21 41 17 10 -2 12 -1 5 1 -7 3 -10 9 -6 14 3 5
10 7 15 4 5 -4 9 -1 9 4 0 6 7 11 15 11 8 0 15 5 15 11 0 8 6 7 17 -2 14 -12
16 -12 8 0 -6 11 -4 13 8 8 12 -4 14 -2 10 10 -4 11 -2 14 5 9 7 -4 12 -2 12
3 0 6 7 11 15 11 8 0 15 5 15 11 0 5 4 7 10 4 6 -3 10 -2 10 4 0 6 7 8 15 5 8
-4 13 -9 10 -13 -2 -4 2 -8 10 -8 20 0 19 13 -2 21 -14 6 -14 8 3 20 19 15 34
12 34 -5 0 -6 -5 -7 -12 -3 -7 4 -8 3 -4 -5 11 -17 28 -2 21 20 -4 11 -2 19 4
19 10 0 15 -14 12 -33 -1 -5 3 -6 9 -2 7 4 7 12 0 25 -8 15 -4 22 28 42 20 12
44 21 52 19 8 -1 12 0 8 5 -12 11 27 34 51 29 12 -2 19 0 16 6 -4 5 -12 6 -18
3 -7 -4 -3 2 8 13 11 11 23 19 26 17 4 -2 15 6 25 17 10 11 24 17 31 15 7 -3
12 0 10 6 -1 6 3 12 10 15 8 3 11 -3 8 -16 -2 -11 0 -23 4 -26 5 -2 7 9 6 25
-3 31 17 56 34 45 7 -4 8 1 4 12 -6 16 -5 16 10 4 15 -12 17 -12 12 1 -3 8 3
23 15 33 11 10 20 24 20 32 0 7 4 13 10 13 5 0 7 7 4 15 -4 8 -1 15 7 15 7 0
9 3 6 7 -4 3 1 12 11 20 9 8 12 12 5 9 -7 -4 -6 8 5 34 9 22 21 40 25 40 5 0
6 -4 3 -8 -2 -4 0 -14 5 -22 7 -12 8 -11 6 5 -1 11 -6 25 -9 30 -4 6 13 52 37
103 24 51 42 92 39 92 -3 0 3 12 14 28 16 24 33 57 36 72 3 13 18 30 27 30 6
0 7 -6 3 -12 -4 -7 -3 -9 1 -5 15 14 15 39 -1 33 -8 -3 -14 -1 -14 4 0 6 5 11
10 11 6 1 15 2 22 3 15 1 22 23 9 30 -11 7 56 146 70 146 5 0 6 7 3 15 -4 8
-1 15 5 15 6 0 11 9 11 19 0 11 7 27 16 35 17 17 39 22 29 7 -3 -5 -1 -12 4
-15 15 -10 6 25 -10 35 -12 8 -12 10 1 19 8 5 16 14 16 20 1 5 2 15 3 21 0 5
6 7 13 3 8 -5 9 -2 5 10 -4 10 1 24 13 36 11 11 20 22 20 25 0 9 30 69 55 110
13 22 29 52 35 67 6 14 18 29 26 32 9 3 12 10 9 16 -3 5 -2 10 3 10 5 0 9 6 9
13 0 14 54 100 66 105 4 2 4 9 0 15 -4 6 0 8 9 4 12 -4 14 -1 11 14 -3 10 -1
19 4 19 5 0 17 18 27 40 10 22 22 40 27 40 5 0 9 8 9 18 0 9 9 23 19 29 17 11
21 9 26 -8 4 -11 9 -18 12 -15 3 3 -2 17 -11 30 -17 27 -13 33 21 31 15 -2 20
2 15 13 -3 10 -1 13 6 8 9 -5 9 0 0 20 -11 24 -10 29 13 48 25 21 29 28 29 46
0 13 27 13 33 0 3 -6 4 -5 3 2 -2 7 6 19 18 26 21 13 12 12 -31 -5 -13 -4 -11
1 6 15 13 12 28 19 34 15 6 -3 7 -1 3 6 -4 6 -12 8 -18 5 -6 -4 -3 5 8 19 21
29 30 33 37 15 2 -7 2 -3 0 10 -2 15 8 38 29 65 18 23 38 49 43 58 24 40 128
169 132 165 3 -2 -3 -17 -12 -33 l-17 -28 21 25 c11 14 18 33 15 43 -3 9 -1
17 5 17 6 0 11 7 11 15 0 8 5 15 10 15 7 0 7 -7 0 -21 -7 -11 -10 -22 -8 -23
2 -1 12 -8 23 -16 19 -14 19 -14 3 5 -12 15 -14 25 -7 38 6 9 8 21 5 25 -3 5
4 16 15 26 17 14 23 15 36 4 15 -12 15 -11 3 8 -11 18 -10 25 6 47 18 24 43
39 29 18 -3 -6 5 -15 17 -21 19 -9 21 -9 8 2 -9 7 -15 20 -15 29 0 21 36 69
47 63 4 -3 8 0 8 6 0 21 59 70 78 64 14 -5 14 -4 2 4 -8 6 -19 8 -24 4 -6 -3
8 13 31 37 23 24 46 40 52 37 6 -4 11 -2 11 3 0 6 -5 11 -11 11 -5 0 -7 5 -3
11 5 8 13 4 26 -12 18 -22 18 -22 9 -2 -6 12 -11 25 -11 29 0 8 136 144 145
144 3 0 3 -6 -1 -12 -6 -10 -5 -10 8 -1 8 7 18 10 21 6 4 -3 7 -1 7 6 0 8 -7
11 -15 7 -8 -3 -15 -3 -15 1 0 10 49 51 54 45 3 -3 6 1 6 10 0 21 42 54 65 50
17 -3 17 -1 5 8 -13 9 -12 12 5 25 11 9 49 41 84 73 35 31 70 61 77 65 8 4 25
18 38 30 42 40 119 102 125 102 3 0 16 10 29 23 12 12 29 22 38 22 8 0 12 4 9
10 -4 6 1 7 11 3 12 -4 15 -3 10 5 -5 8 0 12 13 12 11 0 23 4 26 10 3 6 -1 7
-12 4 -10 -3 -4 3 12 12 17 10 36 17 42 16 8 -2 10 3 7 13 -4 11 -2 14 9 9 10
-3 18 2 22 15 3 12 12 21 20 21 7 0 28 12 46 28 18 15 29 20 24 12 -5 -8 4 -3
20 13 15 15 33 27 40 27 6 0 20 9 30 20 10 11 23 20 28 20 6 0 19 8 30 18 15
12 18 13 12 2 -4 -8 2 -5 14 8 12 12 26 20 32 17 5 -4 9 -2 9 4 0 14 91 57
118 55 29 -2 19 9 -11 12 -12 2 -61 3 -109 4 -48 1 -90 5 -93 11 -4 5 -12 9
-18 9 -8 0 -8 -3 1 -9 10 -6 9 -10 -7 -14 -12 -3 -21 -1 -21 4 0 5 -5 9 -11 9
-5 0 -8 -3 -6 -7 3 -5 -27 -8 -66 -8 -40 0 -78 -4 -84 -9 -9 -5 -13 -4 -13 5
0 11 -2 11 -10 -1 -8 -12 -10 -10 -11 10 0 25 0 25 -11 3 -7 -15 -18 -21 -32
-19 -12 2 -28 0 -37 -5 -13 -6 -16 -3 -14 15 4 29 -9 53 -19 37 -4 -6 -1 -11
6 -11 7 0 -3 -10 -22 -22 -34 -22 -90 -32 -90 -18 0 10 32 24 49 21 7 -1 10 2
7 7 -3 5 1 15 9 22 11 9 15 9 15 1 0 -7 5 -9 10 -6 6 4 7 11 4 17 -4 7 -2 8 4
4 7 -4 12 -1 12 6 0 9 3 9 10 -2 5 -8 10 -10 10 -4 0 5 7 19 16 30 8 10 13 12
9 4 -3 -8 2 -5 11 8 9 12 25 22 35 22 11 0 19 5 19 12 0 6 3 9 6 5 3 -3 15 3
27 14 11 10 26 19 31 19 6 -1 0 -10 -13 -20 -13 -11 -18 -20 -13 -20 6 0 23
16 38 36 17 22 34 34 44 31 10 -2 16 2 17 12 1 14 -11 16 -90 14 -51 -1 -115
-4 -144 -5 -28 -2 -49 0 -47 3 2 4 -3 9 -11 12 -9 4 -12 1 -8 -9 3 -7 0 -14
-6 -14 -6 0 -11 5 -11 10 0 6 -8 10 -17 10 -14 0 -15 -2 -4 -9 9 -6 6 -8 -12
-8 -16 0 -28 6 -30 16 -4 13 -5 12 -6 -3 -1 -15 -7 -17 -36 -14 -19 2 -35 0
-35 -5 0 -4 -5 -5 -10 -2 -6 4 -7 11 -4 17 4 7 2 8 -5 4 -6 -4 -9 -11 -7 -15
3 -4 -8 -8 -24 -8 -18 0 -27 4 -23 11 4 6 -1 5 -11 -3 -9 -8 -31 -16 -48 -18
-24 -2 -29 0 -24 12 15 38 17 50 5 30 -6 -11 -13 -22 -15 -24 -2 -2 -11 2 -21
10 -14 12 -15 12 -9 0 6 -9 5 -12 -5 -9 -8 3 -13 12 -11 21 1 8 -2 18 -8 22
-5 3 -7 0 -4 -8 6 -17 -12 -32 -21 -18 -3 6 -13 8 -23 5 -9 -3 -3 3 13 12 17
10 33 17 37 16 4 -1 12 7 18 19 9 16 14 18 25 9 8 -6 22 -10 32 -7 14 4 13 5
-4 6 -13 0 -23 6 -23 12 0 6 7 8 16 5 8 -3 13 -2 10 3 -3 5 10 18 30 30 43 26
51 26 33 4 -13 -16 -12 -17 4 -4 9 7 17 20 17 28 0 11 7 14 24 11 17 -3 23 0
22 11 -1 10 6 15 18 13 10 -2 15 1 12 6 -3 5 19 21 50 36 30 15 52 31 49 36
-4 6 -8 10 -11 10 -3 0 -2 -4 1 -10 4 -6 -8 -10 -29 -10 -19 0 -38 5 -42 11
-4 8 1 9 17 5 20 -6 21 -5 6 4 -19 12 -41 4 -32 -11 4 -5 -5 -8 -19 -7 -15 1
-26 6 -26 10 0 4 -5 8 -11 8 -5 0 -8 -4 -5 -8 3 -5 -18 -9 -47 -10 -38 -1 -47
2 -32 8 18 8 17 9 -6 7 -18 -1 -25 -6 -22 -14 4 -9 0 -11 -11 -7 -9 3 -13 11
-10 18 3 6 -1 3 -9 -6 -19 -24 -30 -23 -17 2 6 11 8 20 6 20 -3 0 -10 -9 -16
-20z m-30 -265 c0 4 7 2 15 -5 8 -6 19 -9 24 -6 5 4 12 2 16 -4 6 -9 -7 -11
-92 -13 -18 0 -33 -4 -33 -9 0 -4 -5 -8 -11 -8 -8 0 -8 5 1 15 8 10 9 15 2 15
-6 0 -16 -8 -21 -17 -6 -10 -11 -13 -11 -6 0 16 38 42 58 38 9 -1 16 -8 14
-15 -1 -6 2 -9 7 -5 6 3 7 13 4 23 -6 15 -5 15 10 3 9 -7 17 -10 17 -6z m450
-210 c0 -2 -10 -10 -22 -16 -21 -11 -22 -11 -9 4 13 16 31 23 31 12z m-1406
-1909 c-3 -9 -10 -13 -16 -10 -5 3 -4 12 3 20 15 18 22 13 13 -10z m-564 -996
c0 -5 -2 -10 -4 -10 -3 0 -8 5 -11 10 -3 6 -1 10 4 10 6 0 11 -4 11 -10z
m-4531 -417 c-3 -21 2 -34 11 -28 6 4 9 1 8 -6 -2 -6 3 -14 11 -17 8 -2 11 0
8 5 -3 5 0 10 8 10 8 0 12 -4 9 -9 -3 -4 0 -8 6 -8 7 0 9 -7 6 -16 -5 -12 -2
-15 9 -10 9 3 14 2 12 -2 -3 -4 1 -13 9 -20 8 -7 14 -8 14 -2 0 16 27 12 34
-6 3 -8 10 -13 15 -9 5 3 13 0 17 -6 4 -7 3 -9 -4 -5 -6 3 -14 1 -17 -4 -5 -8
-13 -6 -26 6 -10 9 -19 14 -19 9 0 -4 -7 -1 -16 6 -9 8 -24 14 -33 14 -9 0
-16 6 -16 13 0 15 -25 33 -36 26 -4 -2 -20 7 -35 21 -15 14 -24 26 -20 26 3 1
10 2 15 3 5 0 13 4 17 9 4 4 9 7 11 7 2 0 2 -3 2 -7z m644 -406 c3 -8 -3 -13
-14 -13 -22 0 -25 12 -6 19 6 3 13 6 13 6 1 1 4 -5 7 -12z m357 -177 c0 -5 -4
-10 -10 -10 -5 0 -10 5 -10 10 0 6 5 10 10 10 6 0 10 -4 10 -10z"/>
<path d="M6776 6068 c3 -5 10 -6 15 -3 13 9 11 12 -6 12 -8 0 -12 -4 -9 -9z"/>
<path d="M770 2533 c0 -6 8 -17 18 -24 16 -13 16 -13 2 6 -8 11 -16 22 -17 24
-2 2 -3 0 -3 -6z"/>
<path d="M910 2446 c0 -2 8 -10 18 -17 15 -13 16 -12 3 4 -13 16 -21 21 -21
13z"/>
<path d="M6459 6353 c-1 -5 -1 -12 0 -17 1 -5 -5 -6 -14 -2 -10 3 -14 2 -10
-5 9 -14 28 -6 31 14 1 9 0 17 -2 17 -2 0 -5 -3 -5 -7z"/>
<path d="M6573 6335 c0 -7 6 -11 14 -8 7 3 13 6 13 8 0 2 -6 5 -13 8 -8 3 -14
-1 -14 -8z"/>
<path d="M6166 6332 c-3 -5 1 -9 9 -9 8 0 12 4 9 9 -3 4 -7 8 -9 8 -2 0 -6 -4
-9 -8z"/>
<path d="M6337 6321 c-4 -17 -3 -21 5 -13 5 5 8 16 6 23 -3 8 -7 3 -11 -10z"/>
<path d="M6530 6330 c0 -5 5 -10 11 -10 5 0 7 5 4 10 -3 6 -8 10 -11 10 -2 0
-4 -4 -4 -10z"/>
<path d="M6297 6309 c7 -7 15 -10 18 -7 3 3 -2 9 -12 12 -14 6 -15 5 -6 -5z"/>
<path d="M7170 6309 c0 -5 5 -7 10 -4 6 3 10 8 10 11 0 2 -4 4 -10 4 -5 0 -10
-5 -10 -11z"/>
<path d="M6157 6293 c-4 -3 -7 -11 -7 -17 0 -6 5 -5 12 2 6 6 9 14 7 17 -3 3
-9 2 -12 -2z"/>
<path d="M6076 6278 c5 -8 1 -9 -12 -4 -14 5 -16 4 -7 -5 6 -6 16 -8 22 -5 14
9 14 26 0 26 -5 0 -7 -5 -3 -12z"/>
<path d="M5921 6253 c7 -12 15 -20 18 -17 3 2 -3 12 -13 22 -17 16 -18 16 -5
-5z"/>
<path d="M7076 6243 c-6 -14 -5 -15 5 -6 7 7 10 15 7 18 -3 3 -9 -2 -12 -12z"/>
<path d="M5755 6220 c-3 -5 -1 -10 4 -10 6 0 11 5 11 10 0 6 -2 10 -4 10 -3 0
-8 -4 -11 -10z"/>
<path d="M5693 6204 c0 -6 9 -9 19 -6 27 7 29 17 4 17 -13 0 -23 -5 -23 -11z"/>
<path d="M7015 6209 c-4 -5 2 -6 11 -2 12 4 15 3 10 -5 -10 -16 -1 -15 12 1 8
10 6 13 -8 14 -11 1 -22 -2 -25 -8z"/>
<path d="M6950 6190 c-9 -6 -10 -10 -3 -10 6 0 15 5 18 10 8 12 4 12 -15 0z"/>
<path d="M5553 6175 c-3 -9 -3 -18 -1 -21 3 -3 8 4 11 16 6 23 -1 27 -10 5z"/>
<path d="M5450 6171 c0 -6 4 -13 10 -16 6 -3 7 1 4 9 -7 18 -14 21 -14 7z"/>
<path d="M5433 6145 c0 -8 4 -12 9 -9 5 3 6 10 3 15 -9 13 -12 11 -12 -6z"/>
<path d="M6956 6148 c3 -5 10 -6 15 -3 13 9 11 12 -6 12 -8 0 -12 -4 -9 -9z"/>
<path d="M6888 6139 c17 -18 15 -34 -3 -19 -9 7 -15 8 -15 2 0 -12 26 -23 34
-15 12 12 6 31 -11 38 -15 5 -16 4 -5 -6z"/>
<path d="M5230 6129 c0 -5 5 -7 10 -4 6 3 10 8 10 11 0 2 -4 4 -10 4 -5 0 -10
-5 -10 -11z"/>
<path d="M5400 6130 c-9 -6 -10 -10 -3 -10 6 0 15 5 18 10 8 12 4 12 -15 0z"/>
<path d="M7210 6130 c0 -5 5 -10 11 -10 5 0 7 5 4 10 -3 6 -8 10 -11 10 -2 0
-4 -4 -4 -10z"/>
<path d="M7280 6130 c-12 -7 -10 -9 7 -7 12 0 19 5 17 9 -6 10 -6 10 -24 -2z"/>
<path d="M7332 6112 c-11 -25 -11 -25 4 -10 9 9 15 21 13 27 -2 6 -10 -2 -17
-17z"/>
<path d="M7473 6128 c3 -9 1 -19 -6 -22 -9 -3 -9 -5 0 -5 18 -1 23 13 11 29
-8 12 -9 12 -5 -2z"/>
<path d="M5313 6113 c4 -3 1 -13 -6 -22 -11 -14 -10 -14 6 -2 20 15 22 31 5
31 -6 0 -8 -3 -5 -7z"/>
<path d="M7010 6115 c0 -7 30 -13 34 -7 3 4 -4 9 -15 9 -10 1 -19 0 -19 -2z"/>
<path d="M7100 6110 c8 -5 20 -10 25 -10 6 0 3 5 -5 10 -8 5 -19 10 -25 10 -5
0 -3 -5 5 -10z"/>
<path d="M7257 6109 c7 -7 15 -10 18 -7 3 3 -2 9 -12 12 -14 6 -15 5 -6 -5z"/>
<path d="M7426 6108 c3 -5 10 -6 15 -3 13 9 11 12 -6 12 -8 0 -12 -4 -9 -9z"/>
<path d="M6970 6101 c-8 -6 -19 -7 -25 -4 -5 3 -4 0 3 -8 10 -11 15 -10 29 4
19 19 16 22 -7 8z"/>
<path d="M5140 6096 c0 -2 8 -10 18 -17 15 -13 16 -12 3 4 -13 16 -21 21 -21
13z"/>
<path d="M5247 6089 c7 -7 15 -10 18 -7 3 3 -2 9 -12 12 -14 6 -15 5 -6 -5z"/>
<path d="M7485 6050 c-3 -6 1 -7 9 -4 18 7 21 14 7 14 -6 0 -13 -4 -16 -10z"/>
<path d="M7494 6025 c-4 -8 -11 -12 -18 -8 -6 3 -7 2 -3 -2 14 -16 36 -13 54
8 l18 22 -24 -20 c-21 -18 -24 -18 -18 -2 4 9 4 17 1 17 -2 0 -7 -7 -10 -15z"/>
<path d="M4939 6013 c-1 -5 -1 -12 0 -17 1 -4 -11 -6 -26 -2 -23 5 -25 4 -10
-5 22 -13 40 -8 43 14 1 9 0 17 -2 17 -2 0 -5 -3 -5 -7z"/>
<path d="M4815 5990 c3 -5 8 -10 11 -10 2 0 4 5 4 10 0 6 -5 10 -11 10 -5 0
-7 -4 -4 -10z"/>
<path d="M7401 5981 c-7 -5 -12 -13 -10 -18 2 -5 12 -1 22 9 18 19 12 24 -12
9z"/>
<path d="M7347 5968 c-2 -7 -1 -20 4 -29 6 -12 3 -21 -8 -30 -14 -12 -15 -11
-9 11 6 19 5 21 -3 10 -10 -13 -11 -13 -11 0 0 13 -1 13 -10 0 -6 -10 -4 -19
8 -31 16 -14 18 -14 30 0 11 14 12 13 7 -9 -5 -21 -4 -22 5 -7 6 9 8 21 5 26
-3 6 2 14 11 19 15 9 15 10 -5 17 -11 3 -19 11 -15 16 3 5 10 7 15 4 5 -4 9
-1 9 4 0 15 -27 14 -33 -1z"/>
<path d="M7434 5965 c-4 -8 -11 -12 -17 -8 -6 3 -7 1 -3 -5 9 -15 33 -5 33 13
0 19 -6 19 -13 0z"/>
<path d="M4794 5962 c3 -5 0 -13 -6 -15 -9 -4 -10 -6 -1 -6 17 -1 25 16 12 25
-7 4 -9 3 -5 -4z"/>
<path d="M4828 5953 c7 -3 16 -2 19 1 4 3 -2 6 -13 5 -11 0 -14 -3 -6 -6z"/>
<path d="M7469 5947 c6 -8 7 -18 3 -22 -4 -5 -1 -5 6 -1 10 6 10 11 1 22 -6 8
-14 14 -16 14 -3 0 0 -6 6 -13z"/>
<path d="M7595 5929 c3 -16 1 -19 -13 -14 -13 5 -14 3 -5 -5 8 -9 16 -9 30 -1
10 6 13 11 5 11 -7 0 -11 4 -7 9 3 5 1 12 -4 16 -6 3 -8 -4 -6 -16z"/>
<path d="M4695 5930 c-3 -5 -3 -10 2 -10 10 0 -19 -20 -30 -20 -5 0 -5 5 -1
12 4 7 3 8 -4 4 -6 -4 -9 -13 -6 -21 5 -13 9 -13 27 0 11 8 22 21 23 30 3 17
-2 19 -11 5z"/>
<path d="M7715 5930 c-3 -5 -1 -10 4 -10 6 0 11 5 11 10 0 6 -2 10 -4 10 -3 0
-8 -4 -11 -10z"/>
<path d="M7388 5913 c6 -2 18 -2 25 0 6 3 1 5 -13 5 -14 0 -19 -2 -12 -5z"/>
<path d="M7464 5906 c11 -9 24 -16 30 -16 12 0 7 5 -24 19 -24 11 -24 11 -6
-3z"/>
<path d="M7550 5911 c0 -6 4 -13 10 -16 6 -3 7 1 4 9 -7 18 -14 21 -14 7z"/>
<path d="M7666 5906 c3 -9 13 -16 22 -16 8 0 13 1 11 3 -2 1 -12 9 -22 16 -15
12 -17 12 -11 -3z"/>
<path d="M7757 5906 c4 -6 -1 -6 -13 -2 -14 5 -16 4 -7 -5 9 -9 17 -8 34 4 21
16 21 16 1 14 -11 0 -18 -5 -15 -11z"/>
<path d="M7530 5901 c0 -6 4 -13 10 -16 6 -3 7 1 4 9 -7 18 -14 21 -14 7z"/>
<path d="M4630 5891 c0 -6 4 -13 10 -16 6 -3 7 1 4 9 -7 18 -14 21 -14 7z"/>
<path d="M7233 5893 c4 -3 1 -13 -6 -22 -11 -14 -10 -14 6 -2 20 15 22 31 5
31 -6 0 -8 -3 -5 -7z"/>
<path d="M7415 5890 c3 -5 8 -10 11 -10 2 0 4 5 4 10 0 6 -5 10 -11 10 -5 0
-7 -4 -4 -10z"/>
<path d="M7447 5889 c7 -7 15 -10 18 -7 3 3 -2 9 -12 12 -14 6 -15 5 -6 -5z"/>
<path d="M4493 5860 c-1 -11 2 -22 6 -24 4 -3 7 4 6 14 -2 27 -10 33 -12 10z"/>
<path d="M7195 5870 c-3 -5 -1 -10 4 -10 6 0 11 5 11 10 0 6 -2 10 -4 10 -3 0
-8 -4 -11 -10z"/>
<path d="M4536 5848 c3 -5 10 -6 15 -3 13 9 11 12 -6 12 -8 0 -12 -4 -9 -9z"/>
<path d="M4424 5808 l-19 -23 23 19 c21 18 27 26 19 26 -2 0 -12 -10 -23 -22z"/>
<path d="M4385 5810 c-3 -6 1 -7 9 -4 18 7 21 14 7 14 -6 0 -13 -4 -16 -10z"/>
<path d="M7815 5810 c3 -5 8 -10 11 -10 2 0 4 5 4 10 0 6 -5 10 -11 10 -5 0
-7 -4 -4 -10z"/>
<path d="M7755 5799 c-4 -6 -5 -12 -2 -15 2 -3 7 2 10 11 7 17 1 20 -8 4z"/>
<path d="M7697 5775 c-4 -8 -3 -16 1 -19 4 -3 9 4 9 15 2 23 -3 25 -10 4z"/>
<path d="M7727 5777 c-3 -8 1 -14 8 -14 7 0 11 6 8 14 -3 7 -6 13 -8 13 -2 0
-5 -6 -8 -13z"/>
<path d="M4301 5767 c-1 -11 -6 -15 -13 -11 -7 5 -8 3 -3 -5 10 -16 29 2 22
21 -4 8 -6 7 -6 -5z"/>
<path d="M4215 5750 c-3 -5 -1 -10 4 -10 6 0 11 5 11 10 0 6 -2 10 -4 10 -3 0
-8 -4 -11 -10z"/>
<path d="M4250 5750 c-9 -6 -10 -10 -3 -10 6 0 15 5 18 10 8 12 4 12 -15 0z"/>
<path d="M7656 5748 c3 -5 10 -6 15 -3 13 9 11 12 -6 12 -8 0 -12 -4 -9 -9z"/>
<path d="M7606 5732 c-3 -5 1 -9 9 -9 8 0 12 4 9 9 -3 4 -7 8 -9 8 -2 0 -6 -4
-9 -8z"/>
<path d="M7598 5703 c7 -3 16 -2 19 1 4 3 -2 6 -13 5 -11 0 -14 -3 -6 -6z"/>
<path d="M7547 5678 c-12 -10 -14 -17 -6 -28 9 -13 10 -13 6 0 -2 8 3 20 12
27 9 7 13 13 10 13 -3 0 -13 -6 -22 -12z"/>
<path d="M4016 5667 c3 -10 9 -15 12 -12 3 3 0 11 -7 18 -10 9 -11 8 -5 -6z"/>
<path d="M4041 5647 c-13 -21 -12 -21 5 -5 10 10 16 20 13 22 -3 3 -11 -5 -18
-17z"/>
<path d="M3955 5650 c-3 -5 -1 -10 4 -10 6 0 11 5 11 10 0 6 -2 10 -4 10 -3 0
-8 -4 -11 -10z"/>
<path d="M3984 5649 c-4 -7 -3 -9 4 -5 5 3 13 0 15 -6 4 -9 6 -10 6 -1 1 17
-16 25 -25 12z"/>
<path d="M7475 5639 c-4 -6 -4 -13 -1 -16 3 -4 6 -1 6 6 0 7 5 9 12 5 7 -4 8
-3 4 4 -9 15 -13 15 -21 1z"/>
<path d="M7513 5625 c0 -8 4 -12 9 -9 4 3 8 9 8 15 0 5 -4 9 -8 9 -5 0 -9 -7
-9 -15z"/>
<path d="M7440 5610 c-6 -11 -8 -20 -6 -20 3 0 10 9 16 20 6 11 8 20 6 20 -3
0 -10 -9 -16 -20z"/>
<path d="M3850 5609 c0 -5 5 -7 10 -4 6 3 10 8 10 11 0 2 -4 4 -10 4 -5 0 -10
-5 -10 -11z"/>
<path d="M3940 5601 c-8 -6 -18 -7 -22 -5 -4 3 -8 0 -8 -5 0 -15 13 -14 36 4
21 16 17 20 -6 6z"/>
<path d="M7450 5586 c0 -2 8 -10 18 -17 15 -13 16 -12 3 4 -13 16 -21 21 -21
13z"/>
<path d="M7593 5575 c0 -8 4 -12 9 -9 5 3 6 10 3 15 -9 13 -12 11 -12 -6z"/>
<path d="M7426 5572 c-3 -5 1 -9 9 -9 8 0 12 4 9 9 -3 4 -7 8 -9 8 -2 0 -6 -4
-9 -8z"/>
<path d="M3759 5555 c-1 -3 -3 -9 -4 -15 -1 -5 -3 -15 -4 -21 0 -5 -6 -7 -13
-3 -7 5 -8 3 -3 -5 9 -16 24 -2 30 27 3 18 -2 33 -6 17z"/>
<path d="M3790 5549 c0 -5 5 -7 10 -4 6 3 10 8 10 11 0 2 -4 4 -10 4 -5 0 -10
-5 -10 -11z"/>
<path d="M7433 5535 c0 -8 4 -12 9 -9 5 3 6 10 3 15 -9 13 -12 11 -12 -6z"/>
<path d="M7340 5530 c-9 -6 -10 -10 -3 -10 6 0 15 5 18 10 8 12 4 12 -15 0z"/>
<path d="M7310 5499 c0 -5 5 -7 10 -4 6 3 10 8 10 11 0 2 -4 4 -10 4 -5 0 -10
-5 -10 -11z"/>
<path d="M3650 5490 c-9 -6 -10 -10 -3 -10 6 0 15 5 18 10 8 12 4 12 -15 0z"/>
<path d="M7255 5490 c-14 -22 22 -37 41 -17 4 3 -3 4 -16 2 -16 -3 -20 0 -16
10 6 17 0 20 -9 5z"/>
<path d="M3599 5478 c-5 -18 -6 -38 -1 -34 7 8 12 36 6 36 -2 0 -4 -1 -5 -2z"/>
<path d="M7190 5445 c-7 -9 -11 -17 -9 -20 3 -2 10 5 17 15 14 24 10 26 -8 5z"/>
<path d="M7235 5450 c3 -5 8 -10 11 -10 2 0 4 5 4 10 0 6 -5 10 -11 10 -5 0
-7 -4 -4 -10z"/>
<path d="M7310 5449 c0 -5 5 -7 10 -4 6 3 10 8 10 11 0 2 -4 4 -10 4 -5 0 -10
-5 -10 -11z"/>
<path d="M3534 5422 c3 -5 0 -13 -6 -15 -9 -4 -10 -6 -1 -6 17 -1 25 16 12 25
-7 4 -9 3 -5 -4z"/>
<path d="M3436 5412 c-3 -5 1 -9 9 -9 8 0 12 4 9 9 -3 4 -7 8 -9 8 -2 0 -6 -4
-9 -8z"/>
<path d="M3475 5410 c-3 -5 -1 -10 4 -10 6 0 11 5 11 10 0 6 -2 10 -4 10 -3 0
-8 -4 -11 -10z"/>
<path d="M7166 5407 c3 -10 9 -15 12 -12 3 3 0 11 -7 18 -10 9 -11 8 -5 -6z"/>
<path d="M7153 5383 c0 -11 7 -20 14 -20 10 0 10 4 1 16 -7 9 -13 18 -15 20
-1 2 -1 -5 0 -16z"/>
<path d="M7200 5390 c-9 -6 -10 -10 -3 -10 6 0 15 5 18 10 8 12 4 12 -15 0z"/>
<path d="M7095 5361 c-6 -11 13 -26 22 -17 4 3 1 6 -6 6 -7 0 -9 5 -6 10 3 6
4 10 1 10 -3 0 -7 -4 -11 -9z"/>
<path d="M3370 5350 c-9 -6 -10 -10 -3 -10 6 0 15 5 18 10 8 12 4 12 -15 0z"/>
<path d="M7072 5331 c-11 -6 -10 -10 4 -15 9 -3 19 -4 22 -1 3 3 0 5 -7 5 -7
0 -9 5 -6 10 7 12 4 12 -13 1z"/>
<path d="M7133 5315 c0 -8 4 -12 9 -9 5 3 6 10 3 15 -9 13 -12 11 -12 -6z"/>
<path d="M7030 5310 c0 -5 5 -10 10 -10 6 0 10 5 10 10 0 6 -4 10 -10 10 -5 0
-10 -4 -10 -10z"/>
<path d="M3224 5289 c-4 -7 -3 -9 4 -5 5 3 13 0 15 -6 4 -9 6 -10 6 -1 1 17
-16 25 -25 12z"/>
<path d="M3290 5289 c0 -5 5 -7 10 -4 6 3 10 8 10 11 0 2 -4 4 -10 4 -5 0 -10
-5 -10 -11z"/>
<path d="M7001 5286 c-9 -11 -9 -16 0 -22 8 -5 9 -3 4 6 -6 10 -4 12 8 7 11
-4 14 -2 10 9 -6 17 -8 17 -22 0z"/>
<path d="M7055 5289 c-3 -4 2 -6 10 -5 21 3 28 13 10 13 -9 0 -18 -4 -20 -8z"/>
<path d="M3217 5259 c7 -7 15 -10 18 -7 3 3 -2 9 -12 12 -14 6 -15 5 -6 -5z"/>
<path d="M7065 5250 c10 -11 20 -20 23 -20 3 0 -3 9 -13 20 -10 11 -20 20 -23
20 -3 0 3 -9 13 -20z"/>
<path d="M6970 5250 c0 -5 5 -10 10 -10 6 0 10 5 10 10 0 6 -4 10 -10 10 -5 0
-10 -4 -10 -10z"/>
<path d="M7020 5256 c0 -2 8 -10 18 -17 15 -13 16 -12 3 4 -13 16 -21 21 -21
13z"/>
<path d="M6954 5232 c4 -7 2 -13 -3 -13 -6 -1 -15 -2 -20 -3 -6 0 -16 -8 -23
-16 -11 -12 -11 -12 4 -2 13 10 17 10 21 0 4 -11 6 -10 6 0 1 7 5 11 10 8 5
-3 11 1 15 9 3 8 0 17 -6 21 -7 4 -8 3 -4 -4z"/>
<path d="M6999 5238 c-5 -15 -4 -50 1 -53 3 -2 6 9 6 26 0 24 -3 37 -7 27z"/>
<path d="M3096 5205 c-3 -8 0 -17 6 -21 6 -4 8 -3 4 4 -3 5 -1 12 6 14 8 3 9
6 1 11 -6 4 -13 0 -17 -8z"/>
<path d="M2973 5175 c0 -8 4 -12 9 -9 5 3 6 10 3 15 -9 13 -12 11 -12 -6z"/>
<path d="M3040 5165 c-7 -9 -10 -18 -7 -21 3 -3 10 4 17 15 13 25 8 27 -10 6z"/>
<path d="M6910 5165 c5 -7 6 -16 2 -21 -4 -5 -3 -5 2 -1 15 12 15 34 0 34 -9
0 -11 -4 -4 -12z"/>
<path d="M2980 5141 c0 -7 -4 -9 -10 -6 -6 4 -7 -1 -3 -11 6 -15 7 -15 15 1 6
9 7 19 4 22 -3 4 -6 1 -6 -6z"/>
<path d="M6853 5131 c0 -11 5 -18 9 -15 4 3 5 11 1 19 -7 21 -12 19 -10 -4z"/>
<path d="M6878 5143 c7 -3 16 -2 19 1 4 3 -2 6 -13 5 -11 0 -14 -3 -6 -6z"/>
<path d="M6825 5130 c-3 -5 -1 -10 4 -10 6 0 11 5 11 10 0 6 -2 10 -4 10 -3 0
-8 -4 -11 -10z"/>
<path d="M2870 5126 c0 -2 8 -10 18 -17 15 -13 16 -12 3 4 -13 16 -21 21 -21
13z"/>
<path d="M6880 5105 c-11 -13 -11 -18 0 -28 10 -9 11 -9 6 1 -4 7 -2 19 4 27
7 8 10 15 7 15 -2 0 -10 -7 -17 -15z"/>
<path d="M2830 5096 c0 -2 7 -7 16 -10 8 -3 12 -2 9 4 -6 10 -25 14 -25 6z"/>
<path d="M6820 5089 c0 -5 5 -7 10 -4 6 3 10 8 10 11 0 2 -4 4 -10 4 -5 0 -10
-5 -10 -11z"/>
<path d="M6793 5075 c0 -8 4 -15 9 -15 4 0 8 4 8 9 0 6 -4 12 -8 15 -5 3 -9
-1 -9 -9z"/>
<path d="M2832 5056 c7 -8 15 -12 17 -11 5 6 -10 25 -20 25 -5 0 -4 -6 3 -14z"/>
<path d="M2695 5021 c-3 -5 -2 -12 3 -15 5 -3 9 1 9 9 0 17 -3 19 -12 6z"/>
<path d="M2765 5010 c-10 -11 -16 -22 -14 -24 2 -2 12 7 22 20 22 29 17 32 -8
4z"/>
<path d="M6730 5016 c0 -2 7 -7 16 -10 8 -3 12 -2 9 4 -6 10 -25 14 -25 6z"/>
<path d="M6695 5001 c-3 -5 0 -13 6 -17 8 -5 9 -3 4 6 -6 9 -1 10 16 5 19 -5
21 -4 9 4 -19 13 -27 14 -35 2z"/>
<path d="M2647 4989 c7 -7 15 -10 18 -7 3 3 -2 9 -12 12 -14 6 -15 5 -6 -5z"/>
<path d="M6770 4989 c0 -5 5 -7 10 -4 6 3 10 8 10 11 0 2 -4 4 -10 4 -5 0 -10
-5 -10 -11z"/>
<path d="M6713 4967 c-3 -5 0 -14 6 -20 9 -9 10 -7 5 7 -5 13 -4 17 4 12 6 -3
13 -3 16 2 3 5 -2 9 -10 9 -8 0 -17 -4 -21 -10z"/>
<path d="M2655 4950 c3 -5 8 -10 11 -10 2 0 4 5 4 10 0 6 -5 10 -11 10 -5 0
-7 -4 -4 -10z"/>
<path d="M6653 4944 c-3 -8 -9 -12 -14 -9 -14 9 -29 -29 -18 -46 8 -12 10 -12
8 1 -3 29 1 41 11 35 6 -3 13 0 16 8 3 9 13 13 25 10 10 -3 19 -3 19 0 0 13
-42 14 -47 1z"/>
<path d="M2636 4937 c3 -10 9 -15 12 -12 3 3 0 11 -7 18 -10 9 -11 8 -5 -6z"/>
<path d="M6652 4886 c1 -14 5 -23 9 -20 7 4 0 44 -7 44 -2 0 -3 -11 -2 -24z"/>
<path d="M2472 4854 c-7 -8 -8 -14 -3 -14 10 0 25 19 20 25 -2 1 -10 -3 -17
-11z"/>
<path d="M6556 4852 c-2 -4 -1 -14 4 -22 7 -11 9 -9 7 8 -1 24 -3 26 -11 14z"/>
<path d="M6588 4843 c7 -3 16 -2 19 1 4 3 -2 6 -13 5 -11 0 -14 -3 -6 -6z"/>
<path d="M2480 4830 c-9 -6 -10 -10 -3 -10 6 0 15 5 18 10 8 12 4 12 -15 0z"/>
<path d="M6532 4814 c-7 -8 -8 -14 -3 -14 10 0 25 19 20 25 -2 1 -10 -3 -17
-11z"/>
<path d="M6550 4770 c0 -5 5 -10 10 -10 6 0 10 5 10 10 0 6 -4 10 -10 10 -5 0
-10 -4 -10 -10z"/>
<path d="M6480 4745 c0 -5 5 -17 10 -25 5 -8 10 -10 10 -5 0 6 -5 17 -10 25
-5 8 -10 11 -10 5z"/>
<path d="M6550 4736 c0 -2 7 -7 16 -10 8 -3 12 -2 9 4 -6 10 -25 14 -25 6z"/>
<path d="M2253 4715 c0 -8 4 -12 9 -9 5 3 6 10 3 15 -9 13 -12 11 -12 -6z"/>
<path d="M6415 4690 c-3 -5 -1 -10 4 -10 6 0 11 5 11 10 0 6 -2 10 -4 10 -3 0
-8 -4 -11 -10z"/>
<path d="M6405 4650 c10 -11 20 -20 22 -20 2 0 -2 9 -9 20 -7 11 -17 20 -22
20 -5 0 -1 -9 9 -20z"/>
<path d="M2110 4650 c0 -5 5 -10 11 -10 5 0 7 5 4 10 -3 6 -8 10 -11 10 -2 0
-4 -4 -4 -10z"/>
<path d="M2180 4649 c0 -5 5 -7 10 -4 6 3 10 8 10 11 0 2 -4 4 -10 4 -5 0 -10
-5 -10 -11z"/>
<path d="M6355 4610 c3 -5 8 -10 11 -10 2 0 4 5 4 10 0 6 -5 10 -11 10 -5 0
-7 -4 -4 -10z"/>
<path d="M2093 4594 c-5 -13 -7 -13 -14 -2 -6 9 -9 9 -9 1 0 -22 19 -24 30 -3
6 11 8 20 5 20 -3 0 -8 -7 -12 -16z"/>
<path d="M1986 4552 c-3 -5 1 -9 9 -9 8 0 15 4 15 9 0 4 -4 8 -9 8 -6 0 -12
-4 -15 -8z"/>
<path d="M6312 4551 c-11 -6 -10 -10 4 -15 9 -4 22 -2 28 4 8 8 6 9 -8 4 -13
-5 -17 -4 -12 4 8 14 6 15 -12 3z"/>
<path d="M1890 4510 c0 -5 5 -10 11 -10 5 0 7 5 4 10 -3 6 -8 10 -11 10 -2 0
-4 -4 -4 -10z"/>
<path d="M1930 4515 c0 -7 30 -13 34 -7 3 4 -4 9 -15 9 -10 1 -19 0 -19 -2z"/>
<path d="M6296 4511 c-4 -5 3 -7 14 -4 23 6 26 13 6 13 -8 0 -17 -4 -20 -9z"/>
<path d="M1931 4484 c0 -11 3 -14 6 -6 3 7 2 16 -1 19 -3 4 -6 -2 -5 -13z"/>
<path d="M1896 4473 c-6 -14 -5 -15 5 -6 7 7 10 15 7 18 -3 3 -9 -2 -12 -12z"/>
<path d="M1860 4450 c-12 -7 -10 -9 7 -7 12 0 19 5 17 9 -6 10 -6 10 -24 -2z"/>
<path d="M6256 4444 c-5 -14 -4 -15 9 -4 17 14 19 20 6 20 -5 0 -12 -7 -15
-16z"/>
<path d="M1816 4417 c3 -10 9 -15 12 -12 3 3 0 11 -7 18 -10 9 -11 8 -5 -6z"/>
<path d="M1756 4412 c-3 -5 1 -9 9 -9 8 0 12 4 9 9 -3 4 -7 8 -9 8 -2 0 -6 -4
-9 -8z"/>
<path d="M6180 4400 c-6 -11 -8 -20 -6 -20 3 0 10 9 16 20 6 11 8 20 6 20 -3
0 -10 -9 -16 -20z"/>
<path d="M6230 4411 c0 -6 4 -12 8 -15 5 -3 9 1 9 9 0 8 -4 15 -9 15 -4 0 -8
-4 -8 -9z"/>
<path d="M1790 4389 c0 -5 5 -7 10 -4 6 3 10 8 10 11 0 2 -4 4 -10 4 -5 0 -10
-5 -10 -11z"/>
<path d="M1753 4363 c0 -9 4 -10 14 -2 7 6 13 12 13 14 0 1 -6 2 -13 2 -8 0
-14 -6 -14 -14z"/>
<path d="M6155 4360 c-3 -5 -1 -10 4 -10 6 0 11 5 11 10 0 6 -2 10 -4 10 -3 0
-8 -4 -11 -10z"/>
<path d="M1710 4350 c0 -5 7 -7 15 -4 8 4 15 8 15 10 0 2 -7 4 -15 4 -8 0 -15
-4 -15 -10z"/>
<path d="M1680 4330 c0 -5 5 -10 11 -10 5 0 7 5 4 10 -3 6 -8 10 -11 10 -2 0
-4 -4 -4 -10z"/>
<path d="M6135 4330 c-3 -5 -1 -10 4 -10 6 0 11 5 11 10 0 6 -2 10 -4 10 -3 0
-8 -4 -11 -10z"/>
<path d="M1617 4299 c4 -13 8 -18 11 -10 2 7 -1 18 -6 23 -8 8 -9 4 -5 -13z"/>
<path d="M6110 4310 c0 -6 7 -10 15 -10 8 0 15 2 15 4 0 2 -7 6 -15 10 -8 3
-15 1 -15 -4z"/>
<path d="M6215 4311 c-3 -5 -2 -12 3 -15 5 -3 9 1 9 9 0 17 -3 19 -12 6z"/>
<path d="M6150 4306 c0 -2 8 -10 18 -17 15 -13 16 -12 3 4 -13 16 -21 21 -21
13z"/>
<path d="M1643 4285 c0 -8 4 -12 9 -9 5 3 6 10 3 15 -9 13 -12 11 -12 -6z"/>
<path d="M6084 4268 c-2 -4 8 -5 23 -2 37 7 43 15 9 12 -15 -1 -30 -6 -32 -10z"/>
<path d="M1550 4246 c7 -7 13 -7 20 0 6 6 3 10 -10 10 -13 0 -16 -4 -10 -10z"/>
<path d="M6075 4239 c-4 -6 -5 -12 -2 -15 2 -3 7 2 10 11 7 17 1 20 -8 4z"/>
<path d="M1519 4238 c-5 -18 -6 -38 -1 -34 7 8 12 36 6 36 -2 0 -4 -1 -5 -2z"/>
<path d="M6130 4229 c0 -5 5 -7 10 -4 6 3 10 8 10 11 0 2 -4 4 -10 4 -5 0 -10
-5 -10 -11z"/>
<path d="M6093 4217 c0 -8 6 -14 14 -14 9 0 10 4 2 14 -6 7 -12 13 -14 13 -1
0 -2 -6 -2 -13z"/>
<path d="M1459 4198 c-5 -18 -6 -38 -1 -34 7 8 12 36 6 36 -2 0 -4 -1 -5 -2z"/>
<path d="M6010 4156 c0 -3 9 -10 20 -16 11 -6 20 -8 20 -6 0 3 -9 10 -20 16
-11 6 -20 8 -20 6z"/>
<path d="M1340 4110 c-8 -5 -10 -10 -5 -10 6 0 17 5 25 10 8 5 11 10 5 10 -5
0 -17 -5 -25 -10z"/>
<path d="M6075 4101 c-3 -5 -2 -12 3 -15 5 -3 9 1 9 9 0 17 -3 19 -12 6z"/>
<path d="M1316 4087 c3 -10 9 -15 12 -12 3 3 0 11 -7 18 -10 9 -11 8 -5 -6z"/>
<path d="M6010 4069 c0 -5 5 -7 10 -4 6 3 10 8 10 11 0 2 -4 4 -10 4 -5 0 -10
-5 -10 -11z"/>
<path d="M5909 4023 c-13 -16 -12 -17 4 -4 16 13 21 21 13 21 -2 0 -10 -8 -17
-17z"/>
<path d="M1210 4016 c0 -2 7 -7 16 -10 8 -3 12 -2 9 4 -6 10 -25 14 -25 6z"/>
<path d="M1217 3989 c7 -7 15 -10 18 -7 3 3 -2 9 -12 12 -14 6 -15 5 -6 -5z"/>
<path d="M5910 3991 c0 -5 8 -15 18 -22 15 -13 16 -12 4 3 -10 13 -10 17 0 21
8 4 7 6 -4 6 -10 1 -18 -3 -18 -8z"/>
<path d="M1135 3940 c-4 -6 -11 -7 -17 -4 -7 4 -8 2 -4 -4 10 -16 23 -15 30 3
6 17 0 20 -9 5z"/>
<path d="M5909 3933 c-13 -16 -12 -17 4 -4 16 13 21 21 13 21 -2 0 -10 -8 -17
-17z"/>
<path d="M1075 3911 c-3 -5 -2 -12 3 -15 5 -3 9 1 9 9 0 17 -3 19 -12 6z"/>
<path d="M5896 3897 c3 -10 9 -15 12 -12 3 3 0 11 -7 18 -10 9 -11 8 -5 -6z"/>
<path d="M1056 3873 c-6 -14 -5 -15 5 -6 7 7 10 15 7 18 -3 3 -9 -2 -12 -12z"/>
<path d="M5820 3886 c0 -2 7 -7 16 -10 8 -3 12 -2 9 4 -6 10 -25 14 -25 6z"/>
<path d="M976 3843 c-6 -14 -5 -15 5 -6 7 7 10 15 7 18 -3 3 -9 -2 -12 -12z"/>
<path d="M5810 3850 c-8 -5 -10 -10 -5 -10 6 0 17 5 25 10 8 5 11 10 5 10 -5
0 -17 -5 -25 -10z"/>
<path d="M5788 3823 c7 -3 16 -2 19 1 4 3 -2 6 -13 5 -11 0 -14 -3 -6 -6z"/>
<path d="M5830 3811 c0 -6 4 -13 10 -16 6 -3 7 1 4 9 -7 18 -14 21 -14 7z"/>
<path d="M955 3800 c3 -6 1 -10 -6 -10 -7 0 -10 -3 -6 -6 3 -3 13 -2 22 4 16
8 16 9 1 15 -10 4 -15 3 -11 -3z"/>
<path d="M5796 3797 c3 -10 9 -15 12 -12 3 3 0 11 -7 18 -10 9 -11 8 -5 -6z"/>
<path d="M5770 3795 c0 -5 5 -17 10 -25 5 -8 10 -10 10 -5 0 6 -5 17 -10 25
-5 8 -10 11 -10 5z"/>
<path d="M890 3750 c0 -5 5 -10 11 -10 5 0 7 5 4 10 -3 6 -8 10 -11 10 -2 0
-4 -4 -4 -10z"/>
<path d="M5763 3737 c-22 -12 -22 -13 -3 -25 12 -7 21 -8 25 -2 4 6 3 10 -2 9
-22 -4 -25 2 -7 16 23 18 17 19 -13 2z"/>
<path d="M836 3705 c-9 -26 -7 -32 5 -12 6 10 9 21 6 23 -2 3 -7 -2 -11 -11z"/>
<path d="M5715 3710 c-3 -5 -1 -10 4 -10 6 0 11 5 11 10 0 6 -2 10 -4 10 -3 0
-8 -4 -11 -10z"/>
<path d="M5695 3681 c-3 -5 0 -13 6 -17 8 -4 9 -3 5 4 -10 16 6 15 24 0 12
-11 12 -10 1 5 -15 19 -27 22 -36 8z"/>
<path d="M736 3652 c-3 -5 1 -9 9 -9 8 0 12 4 9 9 -3 4 -7 8 -9 8 -2 0 -6 -4
-9 -8z"/>
<path d="M770 3650 c0 -5 5 -10 10 -10 6 0 10 5 10 10 0 6 -4 10 -10 10 -5 0
-10 -4 -10 -10z"/>
<path d="M5686 3647 c3 -10 9 -15 12 -12 3 3 0 11 -7 18 -10 9 -11 8 -5 -6z"/>
<path d="M5674 3617 c0 -15 6 -23 14 -20 10 4 10 9 0 22 -7 9 -13 17 -14 19
-1 2 -1 -8 0 -21z"/>
<path d="M733 3613 c0 -7 4 -13 7 -13 4 0 12 6 18 13 8 10 6 13 -7 13 -10 0
-18 -6 -18 -13z"/>
<path d="M5695 3580 c-4 -6 -16 -8 -28 -5 -20 5 -20 5 -3 -6 14 -9 21 -8 34 5
9 9 13 16 10 16 -4 0 -10 -5 -13 -10z"/>
<path d="M630 3569 c0 -5 5 -7 10 -4 6 3 10 8 10 11 0 2 -4 4 -10 4 -5 0 -10
-5 -10 -11z"/>
<path d="M5626 3551 c-4 -5 3 -7 14 -4 23 6 26 13 6 13 -8 0 -17 -4 -20 -9z"/>
<path d="M570 3531 c0 -6 4 -13 10 -16 6 -3 7 1 4 9 -7 18 -14 21 -14 7z"/>
<path d="M610 3529 c0 -5 5 -7 10 -4 6 3 10 8 10 11 0 2 -4 4 -10 4 -5 0 -10
-5 -10 -11z"/>
<path d="M5633 3532 c-9 -5 -6 -12 10 -21 19 -13 21 -12 10 1 -7 8 -10 18 -6
21 9 9 1 8 -14 -1z"/>
<path d="M553 3505 c0 -8 4 -12 9 -9 5 3 6 10 3 15 -9 13 -12 11 -12 -6z"/>
<path d="M5596 3505 c-9 -26 -7 -32 5 -12 6 10 9 21 6 23 -2 3 -7 -2 -11 -11z"/>
<path d="M580 3490 c-9 -6 -10 -10 -3 -10 6 0 15 5 18 10 8 12 4 12 -15 0z"/>
<path d="M5615 3489 c-4 -6 -4 -13 -1 -16 3 -4 6 -1 6 7 0 10 4 10 18 -1 15
-13 16 -12 3 4 -16 20 -18 20 -26 6z"/>
<path d="M5565 3448 l-20 -21 23 12 c12 6 22 16 22 21 0 13 -2 12 -25 -12z"/>
<path d="M516 3445 c-11 -8 -16 -15 -10 -15 5 0 18 7 28 15 11 8 16 15 10 15
-5 0 -18 -7 -28 -15z"/>
<path d="M459 3438 c-5 -18 -6 -38 -1 -34 7 8 12 36 6 36 -2 0 -4 -1 -5 -2z"/>
<path d="M415 3421 c-3 -5 -2 -12 3 -15 5 -3 9 1 9 9 0 17 -3 19 -12 6z"/>
<path d="M481 3423 c-1 -17 16 -25 25 -12 4 7 3 9 -4 5 -5 -3 -13 0 -15 6 -4
9 -6 10 -6 1z"/>
<path d="M5586 3412 c-3 -5 1 -9 9 -9 8 0 15 4 15 9 0 4 -4 8 -9 8 -6 0 -12
-4 -15 -8z"/>
<path d="M5540 3396 c0 -2 9 -6 20 -9 11 -3 18 -1 14 4 -5 9 -34 13 -34 5z"/>
<path d="M5596 3377 c3 -10 9 -15 12 -12 3 3 0 11 -7 18 -10 9 -11 8 -5 -6z"/>
<path d="M5530 3369 c0 -5 5 -7 12 -3 7 5 9 2 6 -8 -4 -8 0 -15 7 -15 10 0 11
5 4 19 -11 20 -29 24 -29 7z"/>
<path d="M390 3351 c0 -6 4 -13 10 -16 6 -3 7 1 4 9 -7 18 -14 21 -14 7z"/>
<path d="M5504 3294 c-18 -14 -18 -15 4 -4 12 6 22 13 22 15 0 8 -5 6 -26 -11z"/>
<path d="M305 3270 c-3 -6 1 -7 9 -4 18 7 21 14 7 14 -6 0 -13 -4 -16 -10z"/>
<path d="M5475 3260 c-3 -5 -2 -18 4 -27 7 -14 9 -12 8 10 -2 30 -3 31 -12 17z"/>
<path d="M266 3247 c3 -10 9 -15 12 -12 3 3 0 11 -7 18 -10 9 -11 8 -5 -6z"/>
<path d="M5590 3249 c0 -5 5 -7 10 -4 6 3 10 8 10 11 0 2 -4 4 -10 4 -5 0 -10
-5 -10 -11z"/>
<path d="M155 3210 c-3 -5 -1 -10 4 -10 6 0 11 5 11 10 0 6 -2 10 -4 10 -3 0
-8 -4 -11 -10z"/>
<path d="M230 3201 c0 -7 -5 -9 -12 -5 -7 5 -8 3 -3 -5 5 -9 10 -10 18 -2 6 6
8 14 4 18 -4 3 -7 1 -7 -6z"/>
<path d="M5430 3200 c0 -5 5 -10 11 -10 5 0 7 5 4 10 -3 6 -8 10 -11 10 -2 0
-4 -4 -4 -10z"/>
<path d="M5450 3180 c-9 -6 -10 -10 -3 -10 6 0 15 5 18 10 8 12 4 12 -15 0z"/>
<path d="M5417 3153 c-3 -5 5 -8 18 -8 13 0 21 3 18 8 -2 4 -10 7 -18 7 -8 0
-16 -3 -18 -7z"/>
<path d="M120 3121 c0 -6 4 -13 10 -16 6 -3 7 1 4 9 -7 18 -14 21 -14 7z"/>
<path d="M5394 3107 c8 -26 -6 -46 -15 -21 -6 16 -8 16 -8 2 -1 -23 14 -31 29
-13 9 10 9 18 0 32 -11 17 -11 17 -6 0z"/>
<path d="M5419 3068 c-5 -18 -6 -38 -1 -34 7 8 12 36 6 36 -2 0 -4 -1 -5 -2z"/>
<path d="M50 3036 c0 -2 7 -7 16 -10 8 -3 12 -2 9 4 -6 10 -25 14 -25 6z"/>
<path d="M5339 3028 c-8 -26 -4 -40 14 -49 19 -9 20 -8 6 3 -9 7 -15 21 -13
31 2 13 -3 25 -7 15z"/>
<path d="M115 2979 c-11 -16 -1 -19 13 -3 7 8 8 14 3 14 -5 0 -13 -5 -16 -11z"/>
<path d="M5389 2973 c-13 -16 -12 -17 4 -4 9 7 17 15 17 17 0 8 -8 3 -21 -13z"/>
<path d="M153 2965 c0 -7 6 -11 14 -8 7 3 13 6 13 8 0 2 -6 5 -13 8 -8 3 -14
-1 -14 -8z"/>
<path d="M5335 2949 c-3 -4 2 -6 10 -5 21 3 28 13 10 13 -9 0 -18 -4 -20 -8z"/>
<path d="M235 2900 c-3 -5 -1 -10 4 -10 6 0 11 5 11 10 0 6 -2 10 -4 10 -3 0
-8 -4 -11 -10z"/>
<path d="M5333 2895 c0 -8 4 -12 9 -9 5 3 6 10 3 15 -9 13 -12 11 -12 -6z"/>
<path d="M5275 2876 c0 -13 4 -28 8 -32 4 -5 5 0 1 10 -5 14 -4 17 5 11 10 -6
11 -3 2 14 -15 27 -17 26 -16 -3z"/>
<path d="M310 2871 c0 -6 4 -13 10 -16 6 -3 7 1 4 9 -7 18 -14 21 -14 7z"/>
<path d="M5251 2821 c-8 -14 -7 -20 3 -24 10 -4 12 0 8 15 -4 16 -2 19 8 13 9
-5 11 -4 6 3 -10 16 -14 15 -25 -7z"/>
<path d="M5227 2789 c7 -7 15 -10 18 -7 3 3 -2 9 -12 12 -14 6 -15 5 -6 -5z"/>
<path d="M5213 2739 c-2 -23 3 -25 10 -4 4 8 3 16 -1 19 -4 3 -9 -4 -9 -15z"/>
<path d="M5296 2748 c3 -5 10 -6 15 -3 13 9 11 12 -6 12 -8 0 -12 -4 -9 -9z"/>
<path d="M5235 2729 c-3 -4 2 -6 10 -5 21 3 28 13 10 13 -9 0 -18 -4 -20 -8z"/>
<path d="M518 2708 c9 -9 8 -16 0 -27 -10 -13 -9 -14 1 -5 14 13 54 7 45 -7
-8 -14 -14 -52 -6 -45 7 7 8 11 11 37 0 5 6 7 12 3 6 -3 9 -14 6 -23 -3 -13 1
-17 17 -16 12 2 20 8 18 16 -5 21 -23 39 -33 34 -4 -3 -12 3 -18 12 -6 10 -11
14 -11 8 0 -5 -4 -4 -9 4 -5 8 -17 16 -27 17 -12 2 -14 0 -6 -8z m92 -58 c6
-11 8 -20 6 -20 -3 0 -10 9 -16 20 -6 11 -8 20 -6 20 3 0 10 -9 16 -20z"/>
<path d="M5190 2700 c0 -5 7 -7 15 -4 8 4 15 8 15 10 0 2 -7 4 -15 4 -8 0 -15
-4 -15 -10z"/>
<path d="M5175 2670 c3 -5 8 -10 11 -10 2 0 4 5 4 10 0 6 -5 10 -11 10 -5 0
-7 -4 -4 -10z"/>
<path d="M5199 2658 c-6 -20 -5 -38 1 -48 5 -7 7 0 6 19 -1 26 -4 39 -7 29z"/>
<path d="M642 2636 c4 -5 0 -15 -10 -23 -16 -12 -16 -13 1 -7 13 5 16 2 11
-12 -6 -17 -5 -17 10 1 12 14 16 15 13 4 -3 -8 4 -26 15 -40 l20 -24 -16 27
c-9 16 -11 28 -5 30 6 2 -2 15 -18 28 -15 14 -25 21 -21 16z"/>
<path d="M5233 2625 c0 -8 4 -12 9 -9 5 3 6 10 3 15 -9 13 -12 11 -12 -6z"/>
<path d="M5153 2614 c0 -8 3 -12 5 -9 3 3 11 0 19 -7 11 -8 12 -7 7 5 -7 21
-31 29 -31 11z"/>
<path d="M596 2597 c3 -10 9 -15 12 -12 3 3 0 11 -7 18 -10 9 -11 8 -5 -6z"/>
<path d="M710 2565 c0 -8 4 -15 8 -15 5 0 9 7 9 15 0 8 -4 15 -9 15 -4 0 -8
-7 -8 -15z"/>
<path d="M5186 2568 c3 -5 10 -6 15 -3 13 9 11 12 -6 12 -8 0 -12 -4 -9 -9z"/>
<path d="M5116 2543 c-6 -14 -5 -15 5 -6 7 7 10 15 7 18 -3 3 -9 -2 -12 -12z"/>
<path d="M5136 2532 c-2 -4 -1 -14 4 -22 7 -11 9 -9 7 8 -1 24 -3 26 -11 14z"/>
<path d="M5113 2493 c4 -3 -1 -12 -11 -20 -15 -13 -15 -13 6 -3 23 11 30 30
10 30 -6 0 -8 -3 -5 -7z"/>
<path d="M755 2459 c-4 -6 -5 -12 -2 -15 2 -3 7 2 10 11 7 17 1 20 -8 4z"/>
<path d="M5106 2452 c-2 -4 4 -8 14 -8 10 0 16 4 14 8 -3 4 -9 8 -14 8 -5 0
-11 -4 -14 -8z"/>
<path d="M5073 2420 c5 -29 13 -33 13 -5 0 14 -4 25 -8 25 -4 0 -7 -9 -5 -20z"/>
<path d="M859 2428 c-5 -18 -6 -38 -1 -34 7 8 12 36 6 36 -2 0 -4 -1 -5 -2z"/>
<path d="M5145 2410 c-3 -6 1 -7 9 -4 18 7 21 14 7 14 -6 0 -13 -4 -16 -10z"/>
<path d="M5040 2395 c-7 -9 -8 -15 -2 -15 5 0 12 7 16 15 3 8 4 15 2 15 -2 0
-9 -7 -16 -15z"/>
<path d="M945 2391 c-3 -5 0 -13 6 -17 7 -4 9 -3 5 4 -3 5 0 13 6 15 9 4 10 6
1 6 -6 1 -14 -3 -18 -8z"/>
<path d="M977 2383 c-11 -11 -8 -24 6 -22 23 3 38 -1 33 -9 -2 -4 4 -8 14 -9
18 -2 18 -1 2 16 -9 10 -19 16 -21 14 -2 -1 -9 2 -16 7 -7 5 -15 7 -18 3z"/>
<path d="M934 2352 c4 -3 14 -7 22 -8 9 -1 13 0 10 4 -4 3 -14 7 -22 8 -9 1
-13 0 -10 -4z"/>
<path d="M5066 2352 c-3 -5 1 -9 9 -9 8 0 12 4 9 9 -3 4 -7 8 -9 8 -2 0 -6 -4
-9 -8z"/>
<path d="M1059 2328 c-6 -13 -8 -20 -4 -15 5 4 18 -1 29 -10 20 -17 20 -17 7
0 -16 20 -4 22 22 3 17 -13 25 -32 9 -22 -5 3 -9 -1 -9 -9 0 -22 15 -18 22 5
4 11 11 18 16 14 5 -3 6 -11 2 -17 -12 -19 -12 -37 -1 -37 6 0 8 7 5 15 -8 20
5 26 20 9 8 -8 9 -15 3 -19 -6 -3 -10 -11 -10 -18 0 -6 6 -2 14 9 13 17 12 22
-11 46 -14 15 -29 25 -34 23 -4 -3 -21 6 -38 20 l-30 26 -12 -23z"/>
<path d="M5013 2343 c-17 -6 -17 -20 0 -20 8 0 14 6 14 14 0 7 -1 13 -1 12 -1
0 -7 -3 -13 -6z"/>
<path d="M1015 2320 c-3 -6 1 -7 9 -4 18 7 21 14 7 14 -6 0 -13 -4 -16 -10z"/>
<path d="M1020 2296 c0 -2 8 -10 18 -17 15 -13 16 -12 3 4 -13 16 -21 21 -21
13z"/>
<path d="M1055 2290 c3 -5 8 -10 11 -10 2 0 4 5 4 10 0 6 -5 10 -11 10 -5 0
-7 -4 -4 -10z"/>
<path d="M4989 2287 c6 -8 7 -18 3 -22 -4 -5 -1 -5 6 -1 10 6 10 11 1 22 -6 8
-14 14 -16 14 -3 0 0 -6 6 -13z"/>
<path d="M4910 2286 c0 -2 9 -6 20 -9 11 -3 18 -1 14 4 -5 9 -34 13 -34 5z"/>
<path d="M4893 2260 c-1 -11 2 -20 7 -20 4 0 7 7 6 15 -3 23 -12 26 -13 5z"/>
<path d="M1210 2251 c0 -6 5 -11 11 -11 5 0 7 -6 3 -12 -4 -7 -3 -9 1 -5 5 4
15 -3 21 -15 12 -22 13 -22 10 7 -2 17 -7 30 -12 30 -5 0 -15 4 -21 8 -8 5
-13 4 -13 -2z"/>
<path d="M4930 2229 c0 -5 5 -7 10 -4 6 3 10 8 10 11 0 2 -4 4 -10 4 -5 0 -10
-5 -10 -11z"/>
<path d="M1205 2210 c10 -11 20 -20 22 -20 2 0 -2 9 -9 20 -7 11 -17 20 -22
20 -5 0 -1 -9 9 -20z"/>
<path d="M1270 2220 c0 -5 5 -10 11 -10 5 0 7 5 4 10 -3 6 -8 10 -11 10 -2 0
-4 -4 -4 -10z"/>
<path d="M4815 2210 c3 -5 8 -10 11 -10 2 0 4 5 4 10 0 6 -5 10 -11 10 -5 0
-7 -4 -4 -10z"/>
<path d="M1301 2201 c-10 -7 -10 -10 -1 -16 6 -4 16 -3 22 3 13 13 -4 23 -21
13z"/>
<path d="M1270 2191 c0 -6 4 -13 10 -16 6 -3 7 1 4 9 -7 18 -14 21 -14 7z"/>
<path d="M4795 2189 c-4 -6 -5 -12 -2 -15 2 -3 7 2 10 11 7 17 1 20 -8 4z"/>
<path d="M1334 2178 c-4 -7 -4 -10 1 -6 4 4 16 -2 26 -14 11 -11 19 -16 19
-10 0 10 -27 42 -35 42 -2 0 -7 -6 -11 -12z"/>
<path d="M4819 2188 c-5 -18 -6 -38 -1 -34 7 8 12 36 6 36 -2 0 -4 -1 -5 -2z"/>
<path d="M4746 2153 c-6 -14 -5 -15 5 -6 7 7 10 15 7 18 -3 3 -9 -2 -12 -12z"/>
<path d="M1255 2150 c3 -5 8 -10 11 -10 2 0 4 5 4 10 0 6 -5 10 -11 10 -5 0
-7 -4 -4 -10z"/>
<path d="M1308 2153 c6 -2 18 -2 25 0 6 3 1 5 -13 5 -14 0 -19 -2 -12 -5z"/>
<path d="M4710 2150 c0 -5 5 -10 11 -10 5 0 7 5 4 10 -3 6 -8 10 -11 10 -2 0
-4 -4 -4 -10z"/>
<path d="M1350 2141 c0 -6 4 -13 10 -16 6 -3 7 1 4 9 -7 18 -14 21 -14 7z"/>
<path d="M1275 2121 c-3 -5 -2 -12 3 -15 5 -3 9 1 9 9 0 17 -3 19 -12 6z"/>
<path d="M1414 2088 c-2 -4 7 -5 21 -2 20 3 23 1 19 -13 -5 -15 -4 -15 4 -3 6
8 9 17 6 21 -5 9 -44 7 -50 -3z"/>
<path d="M4786 2088 c3 -5 10 -6 15 -3 13 9 11 12 -6 12 -8 0 -12 -4 -9 -9z"/>
<path d="M1525 2072 c-13 -28 -14 -42 -5 -47 5 -3 7 4 5 15 -2 11 3 24 12 28
9 6 12 12 5 16 -5 3 -13 -2 -17 -12z"/>
<path d="M1475 2070 c-3 -5 -1 -10 4 -10 6 0 11 5 11 10 0 6 -2 10 -4 10 -3 0
-8 -4 -11 -10z"/>
<path d="M4590 2070 c0 -5 5 -10 10 -10 6 0 10 5 10 10 0 6 -4 10 -10 10 -5 0
-10 -4 -10 -10z"/>
<path d="M4655 2059 c-4 -6 -5 -12 -2 -15 2 -3 7 2 10 11 7 17 1 20 -8 4z"/>
<path d="M4551 2042 c-7 -14 -6 -18 9 -18 14 0 16 4 9 12 -7 8 -6 14 3 17 9 4
10 6 1 6 -7 1 -17 -7 -22 -17z"/>
<path d="M4593 2035 c0 -8 4 -12 9 -9 5 3 6 10 3 15 -9 13 -12 11 -12 -6z"/>
<path d="M1575 2031 c-3 -5 0 -13 6 -17 8 -4 9 -3 5 4 -12 20 5 13 25 -10 l20
-23 -17 28 c-17 28 -29 34 -39 18z"/>
<path d="M1620 2031 c0 -6 4 -13 10 -16 6 -3 7 1 4 9 -7 18 -14 21 -14 7z"/>
<path d="M4470 2008 c0 -11 12 -10 30 2 12 7 10 9 -8 7 -12 0 -22 -5 -22 -9z"/>
<path d="M1650 2000 c0 -5 5 -10 11 -10 5 0 7 5 4 10 -3 6 -8 10 -11 10 -2 0
-4 -4 -4 -10z"/>
<path d="M4514 1983 c16 -20 36 -23 36 -6 0 4 -3 3 -7 0 -3 -4 -16 1 -27 10
-21 18 -21 18 -2 -4z"/>
<path d="M1690 1972 c0 -4 12 -8 28 -9 23 -1 24 -1 7 7 -26 11 -35 12 -35 2z"/>
<path d="M4423 1969 c9 -6 15 -14 12 -19 -3 -5 -1 -11 4 -14 5 -4 8 0 7 6 -3
21 -16 38 -29 38 -7 0 -4 -5 6 -11z"/>
<path d="M1656 1948 c3 -5 10 -6 15 -3 13 9 11 12 -6 12 -8 0 -12 -4 -9 -9z"/>
<path d="M4337 1935 c-4 -8 -3 -16 1 -19 4 -3 9 4 9 15 2 23 -3 25 -10 4z"/>
<path d="M1805 1929 c-4 -6 -4 -13 -1 -16 3 -4 6 -1 6 6 0 7 5 9 10 6 6 -3 10
-1 10 4 0 14 -17 14 -25 0z"/>
<path d="M4366 1932 c-3 -5 1 -9 9 -9 8 0 12 4 9 9 -3 4 -7 8 -9 8 -2 0 -6 -4
-9 -8z"/>
<path d="M4415 1921 c-3 -5 -2 -12 3 -15 5 -3 9 1 9 9 0 17 -3 19 -12 6z"/>
<path d="M1830 1909 c-12 -8 -10 -9 7 -4 19 5 22 3 17 -12 -5 -14 -4 -15 4 -3
19 25 0 38 -28 19z"/>
<path d="M4280 1901 c0 -6 4 -13 10 -16 6 -3 7 1 4 9 -7 18 -14 21 -14 7z"/>
<path d="M4313 1895 c0 -8 4 -12 9 -9 5 3 6 10 3 15 -9 13 -12 11 -12 -6z"/>
<path d="M1756 1888 c3 -5 10 -6 15 -3 13 9 11 12 -6 12 -8 0 -12 -4 -9 -9z"/>
<path d="M1935 1890 c-3 -5 -1 -10 4 -10 6 0 11 5 11 10 0 6 -2 10 -4 10 -3 0
-8 -4 -11 -10z"/>
<path d="M4230 1889 c0 -5 5 -7 10 -4 6 3 10 8 10 11 0 2 -4 4 -10 4 -5 0 -10
-5 -10 -11z"/>
<path d="M1895 1880 c-3 -6 1 -7 9 -4 18 7 21 14 7 14 -6 0 -13 -4 -16 -10z"/>
<path d="M1960 1870 c-23 -7 -23 -8 -3 -9 12 -1 25 4 28 9 3 6 5 10 3 9 -2 -1
-14 -5 -28 -9z"/>
<path d="M1915 1861 c-3 -5 -2 -12 3 -15 5 -3 9 1 9 9 0 17 -3 19 -12 6z"/>
<path d="M1997 1863 c-10 -10 -8 -23 4 -23 5 0 8 4 5 9 -4 5 0 12 6 14 7 3 8
6 2 6 -6 1 -14 -2 -17 -6z"/>
<path d="M2063 1841 c20 -10 34 -21 30 -26 -5 -4 -2 -5 5 -1 18 11 15 14 -24
31 -50 20 -58 18 -11 -4z"/>
<path d="M4140 1850 c0 -5 9 -8 20 -7 21 1 18 10 -5 13 -8 1 -15 -2 -15 -6z"/>
<path d="M4261 1846 c-9 -11 -9 -16 1 -22 7 -4 10 -4 6 1 -4 4 -3 14 3 22 6 7
9 13 6 13 -2 0 -10 -6 -16 -14z"/>
<path d="M1970 1835 c0 -5 5 -17 10 -25 5 -8 10 -10 10 -5 0 6 -5 17 -10 25
-5 8 -10 11 -10 5z"/>
<path d="M2116 1815 c-3 -8 -1 -15 4 -15 6 0 10 7 10 15 0 8 -2 15 -4 15 -2 0
-6 -7 -10 -15z"/>
<path d="M4035 1810 c3 -5 8 -10 11 -10 2 0 4 5 4 10 0 6 -5 10 -11 10 -5 0
-7 -4 -4 -10z"/>
<path d="M2136 1792 c-2 -4 -1 -14 4 -22 7 -11 9 -9 7 8 -1 24 -3 26 -11 14z"/>
<path d="M2197 1769 c4 -13 8 -18 11 -10 2 7 -1 18 -6 23 -8 8 -9 4 -5 -13z"/>
<path d="M3946 1773 c-6 -14 -5 -15 5 -6 7 7 10 15 7 18 -3 3 -9 -2 -12 -12z"/>
<path d="M2168 1773 c6 -2 9 -10 6 -15 -4 -7 -2 -8 5 -4 13 9 5 26 -12 25 -9
0 -8 -2 1 -6z"/>
<path d="M2248 1773 c-21 -5 -31 -30 -12 -30 8 0 12 3 9 5 -3 3 3 11 13 18 18
14 17 14 -10 7z"/>
<path d="M3916 1753 c-6 -14 -5 -15 5 -6 7 7 10 15 7 18 -3 3 -9 -2 -12 -12z"/>
<path d="M2273 1745 c0 -8 4 -12 9 -9 4 3 8 9 8 15 0 5 -4 9 -8 9 -5 0 -9 -7
-9 -15z"/>
<path d="M2326 1748 c3 -5 10 -6 15 -3 13 9 11 12 -6 12 -8 0 -12 -4 -9 -9z"/>
<path d="M4095 1751 c-3 -5 -2 -12 3 -15 5 -3 9 1 9 9 0 17 -3 19 -12 6z"/>
<path d="M3830 1740 c-13 -8 -12 -10 3 -10 9 0 17 5 17 10 0 12 -1 12 -20 0z"/>
<path d="M2417 1724 c-3 -3 -3 -13 0 -22 5 -14 3 -15 -8 -4 -7 6 -18 12 -23
12 -6 0 0 -7 12 -16 12 -8 19 -21 16 -27 -4 -7 -3 -8 2 -4 5 5 9 22 10 38 1
31 1 32 -9 23z"/>
<path d="M3839 1703 c-13 -16 -12 -17 4 -4 9 7 17 15 17 17 0 8 -8 3 -21 -13z"/>
<path d="M3956 1708 c3 -4 11 -5 19 -1 21 7 19 12 -4 10 -11 0 -18 -5 -15 -9z"/>
<path d="M2316 1697 c3 -10 9 -15 12 -12 3 3 0 11 -7 18 -10 9 -11 8 -5 -6z"/>
<path d="M3750 1703 c5 -2 8 -9 5 -13 -3 -5 -1 -11 4 -14 5 -4 8 2 7 11 -2 9
-8 18 -15 19 -6 1 -7 0 -1 -3z"/>
<path d="M2525 1687 c-15 -12 -16 -15 -4 -22 8 -5 11 -5 7 0 -4 4 0 14 10 21
23 18 11 18 -13 1z"/>
<path d="M3710 1692 c0 -5 7 -9 15 -9 8 0 12 4 9 9 -3 4 -9 8 -15 8 -5 0 -9
-4 -9 -8z"/>
<path d="M3630 1686 c0 -2 7 -7 16 -10 8 -3 12 -2 9 4 -6 10 -25 14 -25 6z"/>
<path d="M2590 1667 c0 -5 9 -7 20 -4 11 3 23 1 26 -4 3 -5 11 -9 17 -9 17 1
-25 24 -45 25 -10 1 -18 -3 -18 -8z"/>
<path d="M3560 1665 c-14 -8 -20 -14 -14 -15 5 0 19 7 30 15 24 18 16 19 -16
0z"/>
<path d="M3674 1654 c0 -20 11 -25 11 -6 0 4 3 12 7 18 4 6 1 11 -5 11 -7 0
-13 -11 -13 -23z"/>
<path d="M2690 1661 c0 -6 4 -13 10 -16 6 -3 7 1 4 9 -7 18 -14 21 -14 7z"/>
<path d="M3501 1644 c0 -11 3 -14 6 -6 3 7 2 16 -1 19 -3 4 -6 -2 -5 -13z"/>
<path d="M3578 1648 c-9 -5 -6 -7 9 -5 12 2 25 6 28 8 8 9 -23 6 -37 -3z"/>
<path d="M2533 1635 c0 -8 4 -12 9 -9 5 3 6 10 3 15 -9 13 -12 11 -12 -6z"/>
<path d="M2670 1641 c0 -5 7 -12 16 -15 14 -5 15 -4 4 9 -14 17 -20 19 -20 6z"/>
<path d="M3401 1643 c-1 -17 16 -25 25 -12 4 7 3 9 -4 5 -5 -3 -13 0 -15 6 -4
9 -6 10 -6 1z"/>
<path d="M2776 1631 c-3 -4 4 -17 15 -27 18 -16 19 -16 13 -1 -3 9 -10 17 -16
17 -5 0 -6 5 -3 10 3 6 4 10 1 10 -3 0 -7 -4 -10 -9z"/>
<path d="M3315 1630 c-3 -5 -1 -10 4 -10 6 0 11 5 11 10 0 6 -2 10 -4 10 -3 0
-8 -4 -11 -10z"/>
<path d="M3356 1629 c2 -4 -2 -10 -8 -12 -7 -3 -8 -6 -2 -6 5 -1 18 5 28 12
16 12 16 13 -3 13 -11 0 -18 -3 -15 -7z"/>
<path d="M2842 1614 c10 -10 20 -16 22 -13 3 3 -5 11 -17 18 -21 13 -21 12 -5
-5z"/>
<path d="M2908 1623 c6 -2 9 -10 6 -15 -4 -7 -2 -8 5 -4 13 9 5 26 -12 25 -9
0 -8 -2 1 -6z"/>
<path d="M3000 1603 c-14 -15 -17 -21 -8 -14 9 7 21 10 25 8 5 -3 10 3 10 14
2 23 4 24 -27 -8z"/>
<path d="M3431 1617 c-8 -10 -7 -14 2 -14 8 0 14 6 14 14 0 7 -1 13 -2 13 -2
0 -8 -6 -14 -13z"/>
<path d="M3473 1616 c0 -15 22 -15 34 0 4 5 4 6 -1 2 -5 -4 -14 -3 -21 2 -8 7
-12 5 -12 -4z"/>
<path d="M3064 1604 c-18 -14 -18 -15 4 -4 12 6 22 13 22 15 0 8 -5 6 -26 -11z"/>
<path d="M3096 1605 c-9 -26 -7 -32 5 -12 6 10 9 21 6 23 -2 3 -7 -2 -11 -11z"/>
<path d="M3127 1609 c7 -7 15 -10 18 -7 3 3 -2 9 -12 12 -14 6 -15 5 -6 -5z"/>
<path d="M3165 1610 c-3 -6 1 -7 9 -4 18 7 21 14 7 14 -6 0 -13 -4 -16 -10z"/>
<path d="M3240 1611 c0 -5 7 -12 16 -15 14 -5 15 -4 4 9 -14 17 -20 19 -20 6z"/>
<path d="M3288 1613 c6 -2 9 -10 6 -15 -4 -7 -2 -8 5 -4 13 9 5 26 -12 25 -9
0 -8 -2 1 -6z"/>
<path d="M3394 1612 c3 -5 0 -13 -6 -15 -9 -4 -10 -6 -1 -6 17 -1 25 16 12 25
-7 4 -9 3 -5 -4z"/>
<path d="M3620 1616 c0 -2 8 -10 18 -17 15 -13 16 -12 3 4 -13 16 -21 21 -21
13z"/>
<path d="M2733 1595 c0 -8 4 -12 9 -9 5 3 6 10 3 15 -9 13 -12 11 -12 -6z"/>
<path d="M2959 1608 c-5 -18 -6 -38 -1 -34 7 8 12 36 6 36 -2 0 -4 -1 -5 -2z"/>
<path d="M2879 1583 c-13 -16 -12 -17 4 -4 16 13 21 21 13 21 -2 0 -10 -8 -17
-17z"/>
<path d="M3188 1593 c6 -2 9 -10 6 -15 -4 -7 -2 -8 5 -4 13 9 5 26 -12 25 -9
0 -8 -2 1 -6z"/>
<path d="M3345 1590 c-3 -6 1 -7 9 -4 18 7 21 14 7 14 -6 0 -13 -4 -16 -10z"/>
<path d="M3406 1568 c3 -5 10 -6 15 -3 13 9 11 12 -6 12 -8 0 -12 -4 -9 -9z"/>
<path d="M2975 1550 c-3 -5 -1 -10 4 -10 6 0 11 5 11 10 0 6 -2 10 -4 10 -3 0
-8 -4 -11 -10z"/>
<path d="M3116 1548 c3 -4 11 -5 19 -1 21 7 19 12 -4 10 -11 0 -18 -5 -15 -9z"/>
</g>
</svg>
