<?xml version="1.0" standalone="no"?>
<!DOCTYPE svg PUBLIC "-//W3C//DTD SVG 20010904//EN"
 "http://www.w3.org/TR/2001/REC-SVG-20010904/DTD/svg10.dtd">
<svg version="1.0" xmlns="http://www.w3.org/2000/svg"
 width="940.000000pt" height="940.000000pt" viewBox="0 0 940.000000 940.000000"
 preserveAspectRatio="xMidYMid meet">
<metadata>
Created by potrace 1.11, written by Peter Selinger 2001-2013
</metadata>
<g transform="translate(0.000000,940.000000) scale(0.100000,-0.100000)"
fill="#000000" stroke="none">
<path d="M7605 7269 c-1725 -132 -3559 -916 -5522 -2361 -489 -360 -1135 -884
-1168 -948 -37 -71 -9 -115 141 -216 64 -44 139 -100 168 -125 29 -25 98 -78
154 -117 55 -40 120 -95 143 -122 55 -65 147 -135 334 -253 714 -450 1372
-703 1970 -758 375 -34 818 51 1255 240 248 108 599 309 798 458 123 92 171
156 247 325 652 1470 1481 2518 2468 3120 166 101 198 134 204 206 8 97 -57
146 -206 156 -90 6 -94 8 -113 68 -6 21 -22 48 -35 60 -24 22 -31 23 -226 25
-111 1 -210 2 -219 2 -32 1 -19 26 28 56 87 55 109 118 58 166 -25 23 -30 24
-197 25 -95 1 -221 -2 -282 -7z"/>
</g>
</svg>
